# Blender v2.90.1 OBJ File: 'Puerta Garage.blend'
# www.blender.org
mtllib Puerta Garage.mtl
o Puerta_Garage_Cubo
v -5.426932 2.669596 -7.954625
v -5.426932 2.669596 -8.008154
v -1.556867 2.669596 -7.954625
v -1.556867 2.669596 -8.008154
v -1.556867 2.369578 -8.007979
v -5.426932 2.369578 -8.007979
v -5.426932 2.369578 -7.954625
v -1.556867 2.369578 -7.954625
vt 0.072836 0.151106
vt 0.072836 0.087773
vt 0.322836 0.087773
vt 0.322836 0.151106
vt 0.220887 0.951575
vt 0.220886 0.777310
vt 0.903403 0.777310
vt 0.903403 0.951576
vt 0.072836 0.151106
vt 0.072836 0.087773
vt 0.322836 0.087773
vt 0.322836 0.151106
vt 0.918555 0.643732
vt 0.918555 0.472963
vt 0.200579 0.472963
vt 0.200579 0.643732
vt 0.647055 0.144830
vt 0.647055 0.094049
vt 0.897055 0.094049
vt 0.897055 0.144830
vt 0.647055 0.094049
vt 0.897055 0.094049
vt 0.897055 0.144830
vt 0.647055 0.144830
vn -1.0000 0.0000 0.0000
vn 0.0000 -0.0006 -1.0000
vn 1.0000 0.0000 0.0000
vn 0.0000 0.0000 1.0000
vn 0.0000 1.0000 0.0000
vn 0.0000 -1.0000 0.0000
usemtl Puerta_Garage
s off
f 7/1/1 1/2/1 2/3/1 6/4/1
f 6/5/2 2/6/2 4/7/2 5/8/2
f 5/9/3 4/10/3 3/11/3 8/12/3
f 8/13/4 3/14/4 1/15/4 7/16/4
f 4/17/5 2/18/5 1/19/5 3/20/5
f 8/21/6 7/22/6 6/23/6 5/24/6
