# Blender v2.90.1 OBJ File: ''
# www.blender.org
mtllib Manija.mtl
o Manija_Esfera.010
v -3.661995 3.811610 -3.925902
v -3.662518 3.808949 -3.925896
v -3.713915 3.835813 -4.000913
v -3.713393 3.838474 -4.000919
v -3.713313 3.833028 -3.920350
v -3.713835 3.830367 -3.920343
v -3.662437 3.806206 -3.925891
v -3.713835 3.833070 -4.000909
v -3.713755 3.827624 -3.920339
v -3.661758 3.803487 -3.925890
v -3.713156 3.830351 -4.000907
v -3.713075 3.824905 -3.920338
v -3.660505 3.800895 -3.925891
v -3.711903 3.827759 -4.000908
v -3.711823 3.822313 -3.920339
v -3.658728 3.798531 -3.925895
v -3.710126 3.825395 -4.000912
v -3.710045 3.819949 -3.920343
v -3.656494 3.796485 -3.925901
v -3.707892 3.823349 -4.000918
v -3.707811 3.817903 -3.920349
v -3.653889 3.794836 -3.925910
v -3.705287 3.821700 -4.000927
v -3.705206 3.816254 -3.920358
v -3.651013 3.793647 -3.925920
v -3.702411 3.820511 -4.000938
v -3.702331 3.815065 -3.920368
v -3.647978 3.792965 -3.925933
v -3.699376 3.819829 -4.000950
v -3.699296 3.814383 -3.920380
v -3.644899 3.792814 -3.925946
v -3.696296 3.819678 -4.000963
v -3.696216 3.814232 -3.920393
v -3.641894 3.793202 -3.925959
v -3.693292 3.820066 -4.000977
v -3.693212 3.814620 -3.920407
v -3.639080 3.794113 -3.925973
v -3.690478 3.820976 -4.000990
v -3.690398 3.815531 -3.920421
v -3.636565 3.795511 -3.925986
v -3.687963 3.822376 -4.001004
v -3.687882 3.816929 -3.920434
v -3.634444 3.797345 -3.925998
v -3.685842 3.824208 -4.001016
v -3.685761 3.818763 -3.920446
v -3.632800 3.799542 -3.926009
v -3.684198 3.826406 -4.001027
v -3.684117 3.820960 -3.920457
v -3.631696 3.802018 -3.926018
v -3.683094 3.828882 -4.001035
v -3.683013 3.823436 -3.920466
v -3.631174 3.804679 -3.926025
v -3.682571 3.831543 -4.001042
v -3.682491 3.826097 -3.920472
v -3.631254 3.807422 -3.926029
v -3.682652 3.834286 -4.001046
v -3.682571 3.828840 -3.920476
v -3.631933 3.810142 -3.926030
v -3.683331 3.837006 -4.001048
v -3.683251 3.831559 -3.920478
v -3.633186 3.812733 -3.926029
v -3.684584 3.839597 -4.001047
v -3.684503 3.834151 -3.920477
v -3.634963 3.815097 -3.926025
v -3.686361 3.841961 -4.001042
v -3.686281 3.836515 -3.920473
v -3.637197 3.817143 -3.926019
v -3.688595 3.844007 -4.001036
v -3.688515 3.838561 -3.920467
v -3.639802 3.818792 -3.926010
v -3.691200 3.845656 -4.001028
v -3.691120 3.840210 -3.920458
v -3.642678 3.819981 -3.926000
v -3.694076 3.846845 -4.001017
v -3.693995 3.841399 -3.920448
v -3.645713 3.820663 -3.925988
v -3.697111 3.847528 -4.001005
v -3.697031 3.842082 -3.920435
v -3.648792 3.820814 -3.925975
v -3.700190 3.847678 -4.000992
v -3.700110 3.842232 -3.920422
v -3.651797 3.820426 -3.925961
v -3.703195 3.847290 -4.000978
v -3.703115 3.841844 -3.920409
v -3.654611 3.819516 -3.925947
v -3.706009 3.846380 -4.000965
v -3.705928 3.840934 -3.920395
v -3.657126 3.818117 -3.925934
v -3.708524 3.844981 -4.000951
v -3.708444 3.839535 -3.920382
v -3.659247 3.816284 -3.925922
v -3.710645 3.843148 -4.000939
v -3.710565 3.837702 -3.920370
v -3.660891 3.814086 -3.925911
v -3.712289 3.840950 -4.000928
v -3.712209 3.835505 -3.920359
vt 0.472798 0.950951
vt 0.472798 0.993127
vt 0.466347 0.993127
vt 0.466347 0.950951
vt 0.466347 0.908774
vt 0.459895 0.950951
vt 0.459895 0.908774
vt 0.411521 0.906309
vt 0.469782 0.874497
vt 0.430853 0.826887
vt 0.372592 0.858700
vt 0.453444 0.950951
vt 0.453444 0.908774
vt 0.427639 0.950951
vt 0.427639 0.993127
vt 0.421187 0.993127
vt 0.421187 0.950951
vt 0.472798 0.908774
vt 0.279256 0.950951
vt 0.279256 0.993127
vt 0.272805 0.993127
vt 0.272805 0.950951
vt 0.440541 0.950951
vt 0.440541 0.993127
vt 0.434090 0.993127
vt 0.434090 0.950951
vt 0.285708 0.950951
vt 0.279256 0.908774
vt 0.285708 0.908774
vt 0.350222 0.993127
vt 0.343770 0.993127
vt 0.343770 0.950951
vt 0.350222 0.950951
vt 0.395382 0.908774
vt 0.395382 0.950951
vt 0.388930 0.950951
vt 0.388930 0.908774
vt 0.376027 0.993127
vt 0.369576 0.993127
vt 0.369576 0.950951
vt 0.376027 0.950951
vt 0.272805 0.908774
vt 0.266354 0.950951
vt 0.266354 0.908774
vt 0.330868 0.993127
vt 0.324416 0.993127
vt 0.324416 0.950951
vt 0.330868 0.950951
vt 0.317965 0.993127
vt 0.311513 0.993127
vt 0.311513 0.950951
vt 0.317965 0.950951
vt 0.414736 0.993127
vt 0.408284 0.993127
vt 0.408284 0.950951
vt 0.414736 0.950951
vt 0.336926 0.904005
vt 0.272190 0.882093
vt 0.299004 0.829191
vt 0.363740 0.851104
vt 0.305062 0.993127
vt 0.305062 0.950951
vt 0.382479 0.908774
vt 0.382479 0.950951
vt 0.376027 0.908774
vt 0.285708 0.993127
vt 0.298611 0.993127
vt 0.298611 0.950951
vt 0.395382 0.993127
vt 0.388930 0.993127
vt 0.446993 0.950951
vt 0.446993 0.993127
vt 0.363125 0.993127
vt 0.363125 0.950951
vt 0.356673 0.993127
vt 0.356673 0.950951
vt 0.337319 0.993127
vt 0.337319 0.950951
vt 0.292159 0.950951
vt 0.292159 0.993127
vt 0.266354 0.993127
vt 0.459895 0.993127
vt 0.453444 0.993127
vt 0.401833 0.993127
vt 0.401833 0.950951
vt 0.382479 0.993127
vt 0.369576 0.908774
vt 0.292159 0.908774
vt 0.298611 0.908774
vt 0.305062 0.908774
vt 0.311513 0.908774
vt 0.317965 0.908774
vt 0.324416 0.908774
vt 0.330868 0.908774
vt 0.337319 0.908774
vt 0.343770 0.908774
vt 0.350222 0.908774
vt 0.401833 0.908774
vt 0.408284 0.908774
vt 0.414736 0.908774
vt 0.421187 0.908774
vt 0.427639 0.908774
vt 0.434090 0.908774
vt 0.440541 0.908774
vt 0.446993 0.908774
vt 0.356673 0.908774
vt 0.363125 0.908774
vt 0.327631 0.906309
vt 0.317965 0.907087
vt 0.308299 0.906309
vt 0.299004 0.904005
vt 0.290438 0.900264
vt 0.282930 0.895229
vt 0.276768 0.889093
vt 0.269370 0.874497
vt 0.268418 0.866598
vt 0.269370 0.858700
vt 0.272190 0.851104
vt 0.276768 0.844104
vt 0.282930 0.837968
vt 0.290438 0.832933
vt 0.308299 0.826887
vt 0.317965 0.826110
vt 0.327631 0.826887
vt 0.336926 0.829191
vt 0.345491 0.832933
vt 0.353000 0.837968
vt 0.359161 0.844104
vt 0.367511 0.866598
vt 0.366559 0.874497
vt 0.363740 0.882093
vt 0.359161 0.889093
vt 0.353000 0.895229
vt 0.345491 0.900264
vt 0.421187 0.907087
vt 0.430853 0.906309
vt 0.440148 0.904005
vt 0.448714 0.900264
vt 0.456222 0.895229
vt 0.462384 0.889093
vt 0.466962 0.882093
vt 0.470734 0.866598
vt 0.462384 0.844104
vt 0.469782 0.858699
vt 0.466962 0.851104
vt 0.456222 0.837968
vt 0.448714 0.832933
vt 0.440148 0.829191
vt 0.421187 0.826110
vt 0.411521 0.826887
vt 0.402226 0.829191
vt 0.393660 0.832933
vt 0.386152 0.837968
vt 0.379991 0.844104
vt 0.375412 0.851104
vt 0.371640 0.866598
vt 0.379991 0.889093
vt 0.372592 0.874497
vt 0.375412 0.882093
vt 0.386152 0.895229
vt 0.393661 0.900264
vt 0.402226 0.904005
vn -0.9812 0.1925 0.0140
vn 0.1096 0.0048 0.9940
vn 0.0043 0.0016 1.0000
vn 0.1200 0.0305 0.9923
vn -0.3815 -0.9223 -0.0620
vn 0.1005 -0.0172 0.9948
vn -0.7998 0.5988 0.0413
vn -0.6747 -0.7365 -0.0491
vn 0.0743 -0.0795 0.9941
vn 0.9000 0.4349 0.0285
vn -0.0636 0.1049 -0.9924
vn 0.9129 -0.4072 -0.0284
vn 0.0920 -0.0375 0.9951
vn 0.5342 0.8435 0.0565
vn 0.2192 0.9735 0.0656
vn -0.0490 -0.9965 -0.0673
vn -0.5342 -0.8435 -0.0565
vn -0.0043 -0.0016 -1.0000
vn 0.0490 0.9965 0.0673
vn -0.0836 0.0577 -0.9948
vn -0.6529 0.7557 0.0517
vn -0.1274 0.9896 0.0670
vn 0.4849 -0.8725 -0.0595
vn -0.7987 -0.6005 -0.0398
vn 0.9812 -0.1926 -0.0140
vn 0.9996 0.0292 0.0010
vn 0.9700 0.2424 0.0154
vn 0.7987 0.6004 0.0398
vn 0.6746 0.7365 0.0491
vn 0.3815 0.9223 0.0620
vn -0.4849 0.8726 0.0595
vn -0.9129 0.4072 0.0284
vn -0.9996 -0.0294 -0.0010
vn -0.9000 -0.4350 -0.0285
vn -0.2192 -0.9735 -0.0656
vn 0.1274 -0.9896 -0.0670
vn 0.3069 -0.9496 -0.0645
vn 0.6528 -0.7557 -0.0517
vn 0.8000 -0.5986 -0.0413
vn -0.9701 -0.2423 -0.0154
vn -0.0920 0.0374 -0.9951
vn -0.0744 0.0794 -0.9941
vn 0.0495 -0.1379 0.9892
vn 0.0286 -0.1863 0.9821
vn -0.0092 -0.2715 0.9624
vn -0.1034 -0.4736 0.8746
vn -0.3813 -0.9238 0.0356
vn -0.2693 -0.4207 -0.8663
vn -0.1887 -0.2031 -0.9608
vn -0.1538 -0.1140 -0.9815
vn -0.1338 -0.0642 -0.9889
vn -0.3070 0.9495 0.0645
vn 0.0836 -0.0577 0.9948
vn 0.0636 -0.1050 0.9924
vn -0.0493 0.1380 -0.9892
vn -0.0285 0.1863 -0.9821
vn 0.0091 0.2714 -0.9624
vn 0.1030 0.4736 -0.8747
vn 0.3817 0.9236 -0.0357
vn 0.2696 0.4212 0.8660
vn 0.1887 0.2030 0.9608
vn 0.1537 0.1140 0.9815
vn 0.1336 0.0642 0.9889
vn -0.1201 -0.0306 -0.9923
vn -0.1095 -0.0047 -0.9940
vn -0.1004 0.0173 -0.9948
vn -0.0057 -0.0015 -1.0000
vn -0.0046 -0.0016 -1.0000
vn -0.0047 -0.0016 -1.0000
vn -0.0040 -0.0010 -1.0000
vn -0.0041 -0.0024 -1.0000
vn -0.0045 -0.0023 -1.0000
vn -0.0042 -0.0018 -1.0000
vn -0.0045 -0.0017 -1.0000
vn -0.0035 -0.0015 -1.0000
vn -0.0038 -0.0019 -1.0000
vn -0.0068 -0.0015 -1.0000
vn -0.0079 -0.0017 -1.0000
vn -0.0015 -0.0017 -1.0000
vn -0.0055 -0.0016 -1.0000
vn -0.0047 -0.0014 -1.0000
vn -0.0042 -0.0019 -1.0000
vn -0.0045 -0.0024 -1.0000
vn -0.0023 -0.0008 -1.0000
vn -0.0045 -0.0015 -1.0000
vn -0.0079 -0.0015 -1.0000
vn -0.0041 -0.0017 -1.0000
vn -0.0043 -0.0017 -1.0000
vn -0.0038 -0.0017 -1.0000
vn -0.0044 -0.0016 -1.0000
vn -0.0044 -0.0017 -1.0000
vn 0.0045 0.0017 1.0000
vn 0.0034 0.0016 1.0000
vn 0.0028 0.0015 1.0000
vn 0.0044 0.0017 1.0000
vn 0.0043 0.0015 1.0000
vn 0.0042 0.0015 1.0000
vn 0.0043 0.0017 1.0000
vn 0.0046 0.0015 1.0000
vn 0.0057 0.0017 1.0000
vn 0.0057 0.0014 1.0000
vn 0.0034 0.0017 1.0000
vn 0.0045 0.0016 1.0000
vn 0.0038 0.0016 1.0000
vn 0.0047 0.0018 1.0000
vn 0.0044 0.0015 1.0000
vn 0.0057 0.0013 1.0000
vn 0.0044 0.0016 1.0000
vn 0.0048 0.0017 1.0000
vn 0.0285 -0.1863 0.9821
vn -0.0094 -0.2715 0.9624
vn -0.1025 -0.4732 0.8750
vn -0.3817 -0.9236 0.0357
vn -0.2696 -0.4210 -0.8661
vn -0.1887 -0.2033 -0.9608
vn -0.1539 -0.1141 -0.9815
vn -0.0495 0.1380 -0.9892
vn -0.0284 0.1863 -0.9821
vn 0.0092 0.2715 -0.9624
vn 0.1029 0.4732 -0.8749
vn 0.3820 0.9235 -0.0351
vn 0.2693 0.4213 0.8660
vn 0.1539 0.1140 0.9815
vn 0.1339 0.0642 0.9889
usemtl Regadera
s off
f 5/1/1 4/2/1 3/3/1 6/4/1
f 2/5/2 6/4/2 9/6/2 7/7/2
f 94/8/3 22/9/3 46/10/3 70/11/3
f 7/7/4 9/6/4 12/12/4 10/13/4
f 24/14/5 23/15/5 26/16/5 27/17/5
f 1/18/6 5/1/6 6/4/6 2/5/6
f 93/19/7 92/20/7 95/21/7 96/22/7
f 18/23/8 17/24/8 20/25/8 21/26/8
f 90/27/9 93/19/9 91/28/9 88/29/9
f 59/30/10 62/31/10 63/32/10 60/33/10
f 37/34/11 39/35/11 42/36/11 40/37/11
f 47/38/12 50/39/12 51/40/12 48/41/12
f 94/42/13 96/22/13 5/43/13 1/44/13
f 68/45/14 71/46/14 72/47/14 69/48/14
f 74/49/15 77/50/15 78/51/15 75/52/15
f 29/53/16 32/54/16 33/55/16 30/56/16
f 21/26/17 20/25/17 23/15/17 24/14/17
f 8/57/18 80/58/18 56/59/18 32/60/18
f 78/51/19 77/50/19 80/61/19 81/62/19
f 43/63/20 45/64/20 48/41/20 46/65/20
f 90/27/21 89/66/21 92/20/21 93/19/21
f 81/62/22 80/61/22 83/67/22 84/68/22
f 38/69/23 41/70/23 42/36/23 39/35/23
f 15/71/24 14/72/24 17/24/24 18/23/24
f 50/39/25 53/73/25 54/74/25 51/40/25
f 53/73/26 56/75/26 57/76/26 54/74/26
f 56/75/27 59/30/27 60/33/27 57/76/27
f 62/31/28 65/77/28 66/78/28 63/32/28
f 65/77/29 68/45/29 69/48/29 66/78/29
f 71/46/30 74/49/30 75/52/30 72/47/30
f 87/79/31 86/80/31 89/66/31 90/27/31
f 96/22/32 95/21/32 4/81/32 5/43/32
f 6/4/33 3/3/33 8/82/33 9/6/33
f 12/12/34 11/83/34 14/72/34 15/71/34
f 27/17/35 26/16/35 29/53/35 30/56/35
f 32/54/36 35/84/36 36/85/36 33/55/36
f 35/84/37 38/69/37 39/35/37 36/85/37
f 41/70/38 44/86/38 45/64/38 42/36/38
f 44/86/39 47/38/39 48/41/39 45/64/39
f 9/6/40 8/82/40 11/83/40 12/12/40
f 48/41/41 51/40/41 49/87/41 46/65/41
f 40/37/42 42/36/42 45/64/42 43/63/42
f 84/68/43 85/88/43 82/89/43
f 81/62/44 82/89/44 79/90/44
f 78/51/45 79/90/45 76/91/45
f 75/52/46 76/91/46 73/92/46
f 72/47/47 73/92/47 70/93/47
f 69/48/48 70/93/48 67/94/48
f 66/78/49 67/94/49 64/95/49
f 63/32/50 64/95/50 61/96/50
f 60/33/51 61/96/51 58/97/51
f 84/68/52 83/67/52 86/80/52 87/79/52
f 93/19/53 96/22/53 94/42/53 91/28/53
f 87/79/54 90/27/54 88/29/54 85/88/54
f 34/98/55 39/35/55 37/34/55
f 31/99/56 36/85/56 34/98/56
f 28/100/57 33/55/57 31/99/57
f 25/101/58 30/56/58 28/100/58
f 22/102/59 27/17/59 25/101/59
f 19/103/60 24/14/60 22/102/60
f 16/104/61 21/26/61 19/103/61
f 13/105/62 18/23/62 16/104/62
f 10/13/63 15/71/63 13/105/63
f 57/76/64 60/33/64 58/97/64 55/106/64
f 54/74/65 57/76/65 55/106/65 52/107/65
f 51/40/66 54/74/66 52/107/66 49/87/66
f 8/57/67 3/108/67 4/109/67
f 4/109/68 95/110/68 8/57/68
f 95/110/69 92/111/69 8/57/69
f 92/111/70 89/112/70 86/113/70
f 86/113/71 83/114/71 80/58/71
f 80/58/72 77/115/72 74/116/72
f 74/116/73 71/117/73 80/58/73
f 71/117/74 68/118/74 80/58/74
f 68/118/75 65/119/75 56/59/75
f 65/119/76 62/120/76 56/59/76
f 62/120/77 59/121/77 56/59/77
f 56/59/78 53/122/78 50/123/78
f 50/123/79 47/124/79 56/59/79
f 47/124/80 44/125/80 56/59/80
f 44/125/81 41/126/81 32/60/81
f 41/126/82 38/127/82 32/60/82
f 38/127/83 35/128/83 32/60/83
f 26/129/84 23/130/84 20/131/84
f 20/131/85 17/132/85 14/133/85
f 14/133/86 11/134/86 8/57/86
f 92/111/87 86/113/87 8/57/87
f 86/113/88 80/58/88 8/57/88
f 32/60/85 26/129/85 20/131/85
f 20/131/89 14/133/89 8/57/89
f 80/58/90 68/118/90 56/59/90
f 56/59/88 44/125/88 32/60/88
f 32/60/91 20/131/91 8/57/91
f 94/8/92 1/135/92 2/136/92
f 2/136/92 7/137/92 10/138/92
f 10/138/93 13/139/93 16/140/93
f 16/140/94 19/141/94 22/9/94
f 22/9/95 25/142/95 34/143/95
f 25/142/96 28/144/96 34/143/96
f 28/144/97 31/145/97 34/143/97
f 34/143/98 37/146/98 46/10/98
f 37/146/99 40/147/99 46/10/99
f 40/147/100 43/148/100 46/10/100
f 46/10/101 49/149/101 52/150/101
f 52/150/102 55/151/102 58/152/102
f 58/152/103 61/153/103 64/154/103
f 64/154/104 67/155/104 58/152/104
f 67/155/105 70/11/105 58/152/105
f 70/11/98 73/156/98 82/157/98
f 73/156/96 76/158/96 82/157/96
f 76/158/106 79/159/106 82/157/106
f 82/157/107 85/160/107 88/161/107
f 88/161/102 91/162/102 94/8/102
f 94/8/108 2/136/108 22/9/108
f 2/136/98 10/138/98 22/9/98
f 10/138/109 16/140/109 22/9/109
f 46/10/3 52/150/3 70/11/3
f 52/150/98 58/152/98 70/11/98
f 82/157/98 88/161/98 70/11/98
f 88/161/108 94/8/108 70/11/108
f 22/9/3 34/143/3 46/10/3
f 84/68/43 87/79/43 85/88/43
f 81/62/110 84/68/110 82/89/110
f 78/51/111 81/62/111 79/90/111
f 75/52/112 78/51/112 76/91/112
f 72/47/113 75/52/113 73/92/113
f 69/48/114 72/47/114 70/93/114
f 66/78/115 69/48/115 67/94/115
f 63/32/116 66/78/116 64/95/116
f 60/33/51 63/32/51 61/96/51
f 34/98/117 36/85/117 39/35/117
f 31/99/118 33/55/118 36/85/118
f 28/100/119 30/56/119 33/55/119
f 25/101/120 27/17/120 30/56/120
f 22/102/121 24/14/121 27/17/121
f 19/103/122 21/26/122 24/14/122
f 16/104/61 18/23/61 21/26/61
f 13/105/123 15/71/123 18/23/123
f 10/13/124 12/12/124 15/71/124
