# Blender v2.90.1 OBJ File: 'Regadera.blend'
# www.blender.org
mtllib Regadera.mtl
o Regadera_Esfera.008
v -3.675716 4.298899 -3.849898
v -3.675193 4.295700 -3.850187
v -3.674649 4.302905 -3.898853
v -3.675111 4.306108 -3.898507
v -3.681054 4.248253 -3.788993
v -3.684225 4.247211 -3.789428
v -3.687655 4.278529 -3.849471
v -3.684573 4.279696 -3.849851
v -3.703042 4.281955 -3.846960
v -3.699780 4.251276 -3.790766
v -3.701988 4.253722 -3.790793
v -3.705281 4.284307 -3.846472
v -3.706285 4.310637 -3.899612
v -3.706429 4.302657 -3.845090
v -3.704504 4.305309 -3.845201
v -3.704267 4.313234 -3.899207
v -3.675636 4.252017 -3.788074
v -3.678154 4.249876 -3.788535
v -3.681774 4.281430 -3.850152
v -3.679366 4.283669 -3.850362
v -3.672117 4.257510 -3.787212
v -3.673598 4.254594 -3.787628
v -3.677440 4.286322 -3.850473
v -3.676072 4.289289 -3.850480
v -3.715396 4.250914 -3.803586
v -3.714610 4.281047 -3.787190
v -3.658877 4.280155 -3.781984
v -3.662032 4.253044 -3.801353
v -3.681660 4.288836 -3.900842
v -3.679160 4.291007 -3.900461
v -3.680134 4.314343 -3.897819
v -3.680827 4.307023 -3.848603
v -3.678588 4.304670 -3.849091
v -3.677907 4.311941 -3.897980
v -3.697386 4.278769 -3.848010
v -3.694120 4.247851 -3.790449
v -3.697124 4.249292 -3.790650
v -3.700377 4.280086 -3.847479
v -3.671031 4.263893 -3.786537
v -3.671250 4.260648 -3.786844
v -3.675313 4.292454 -3.850384
v -3.700570 4.274718 -3.788805
v -3.698052 4.276859 -3.788344
v -3.702095 4.307548 -3.845411
v -3.694187 4.278057 -3.848532
v -3.690886 4.247006 -3.790171
v -3.708556 4.296523 -3.845180
v -3.704956 4.266088 -3.790036
v -3.704089 4.269228 -3.789668
v -3.707797 4.299689 -3.845083
v -3.685320 4.279728 -3.786709
v -3.682086 4.278884 -3.786431
v -3.686483 4.310208 -3.847553
v -3.689682 4.310922 -3.847031
v -3.674218 4.273015 -3.786087
v -3.672544 4.270196 -3.786151
v -3.676863 4.301928 -3.849528
v -3.790868 4.181079 -3.771871
v -3.788523 4.297603 -3.708460
v -3.676211 4.309159 -3.898212
v -3.692089 4.333810 -4.001588
v -3.692402 4.318623 -3.897966
v -3.689059 4.318459 -3.897810
v -3.688746 4.333698 -4.001623
v -3.679082 4.277442 -3.786230
v -3.676426 4.275460 -3.786114
v -3.683493 4.308892 -3.848084
v -3.700621 4.287963 -3.901933
v -3.697608 4.286574 -3.901936
v -3.674842 4.299671 -3.899236
v -3.675684 4.296530 -3.899642
v -3.675199 4.312061 -4.004785
v -3.674381 4.315203 -4.004340
v -3.674213 4.318428 -4.003881
v -3.684547 4.287175 -3.901185
v -3.687709 4.286088 -3.901475
v -3.687140 4.301476 -4.006233
v -3.683987 4.302608 -4.006087
v -3.707840 4.313156 -4.004457
v -3.708316 4.298131 -3.901161
v -3.708778 4.301336 -3.900815
v -3.708328 4.316340 -4.003999
v -3.708584 4.304571 -3.900432
v -3.708160 4.319564 -4.003540
v -3.707343 4.322705 -4.003095
v -3.707742 4.307712 -3.900026
v -3.705908 4.325643 -4.002683
v -3.674701 4.321611 -4.003423
v -3.677142 4.293604 -3.900056
v -3.678630 4.306507 -4.005559
v -3.676633 4.309125 -4.005196
v -3.703293 4.289897 -3.901849
v -3.705519 4.292301 -3.901688
v -3.702608 4.272141 -3.789252
v -3.708676 4.293277 -3.845376
v -3.705175 4.262844 -3.790343
v -3.707006 4.287050 -3.846035
v -3.707215 4.295082 -3.901456
v -3.694367 4.285782 -3.901858
v -3.675825 4.324635 -4.002985
v -3.697042 4.301808 -4.006134
v -3.693795 4.301069 -4.006257
v -3.685499 4.332960 -4.001746
v -3.685819 4.317667 -3.897732
v -3.682805 4.316278 -3.897735
v -3.682475 4.331622 -4.001953
v -3.708153 4.290080 -3.845665
v -3.706716 4.310133 -4.004893
v -3.698555 4.332160 -4.001791
v -3.582255 4.306771 -3.699287
v -3.584601 4.190248 -3.762697
v -3.704738 4.259620 -3.790577
v -3.703662 4.256539 -3.790729
v -3.688661 4.279944 -3.787053
v -3.692968 4.311002 -3.846538
v -3.690901 4.277976 -3.849025
v -3.687545 4.246790 -3.789826
v -3.671468 4.267117 -3.786303
v -3.695152 4.278482 -3.787887
v -3.699296 4.309282 -3.845712
v -3.691981 4.279524 -3.787451
v -3.696214 4.310450 -3.846092
v -3.695401 4.333292 -4.001646
v -3.695718 4.318152 -3.898193
v -3.679788 4.329738 -4.002235
v -3.677543 4.327377 -4.002584
v -3.704998 4.307391 -4.005294
v -3.702753 4.305030 -4.005643
v -3.698880 4.317067 -3.898483
v -3.703911 4.328261 -4.002319
v -3.701766 4.315405 -3.898826
v -3.701428 4.330462 -4.002017
v -3.700066 4.303145 -4.005927
v -3.691025 4.285618 -3.901702
v -3.690452 4.300958 -4.006289
v -3.681113 4.304306 -4.005860
vt 0.122791 0.964401
vt 0.115525 0.964401
vt 0.115525 0.935337
vt 0.122791 0.935337
vt 0.071929 0.993465
vt 0.064663 0.993465
vt 0.064663 0.964401
vt 0.071929 0.964401
vt 0.028333 0.964401
vt 0.028333 0.993465
vt 0.021067 0.993465
vt 0.021067 0.964401
vt 0.209984 0.935337
vt 0.209984 0.964401
vt 0.202718 0.964401
vt 0.202718 0.935337
vt 0.086461 0.993465
vt 0.079195 0.993465
vt 0.079195 0.964401
vt 0.086461 0.964401
vt 0.100993 0.993465
vt 0.093727 0.993465
vt 0.093727 0.964401
vt 0.100993 0.964401
vt 0.122288 0.402079
vt 0.237200 0.402079
vt 0.237200 0.516990
vt 0.122288 0.516990
vt 0.079195 0.935337
vt 0.086461 0.935337
vt 0.144589 0.935337
vt 0.144589 0.964401
vt 0.137323 0.964401
vt 0.137323 0.935337
vt 0.042865 0.964401
vt 0.042865 0.993465
vt 0.035599 0.993465
vt 0.035599 0.964401
vt 0.115525 0.993465
vt 0.108259 0.993465
vt 0.108259 0.964401
vt 0.202718 0.993465
vt 0.195452 0.993465
vt 0.195452 0.964401
vt 0.050131 0.964401
vt 0.050131 0.993465
vt 0.224516 0.964401
vt 0.224516 0.993465
vt 0.217250 0.993465
vt 0.217250 0.964401
vt 0.166388 0.993465
vt 0.159122 0.993465
vt 0.159122 0.964401
vt 0.166388 0.964401
vt 0.137323 0.993465
vt 0.130057 0.993465
vt 0.130057 0.964401
vt 0.122288 0.287167
vt 0.237200 0.287167
vt 0.130057 0.935337
vt 0.173654 0.877209
vt 0.173654 0.935337
vt 0.166388 0.935337
vt 0.166388 0.877209
vt 0.151856 0.993465
vt 0.144589 0.993465
vt 0.151856 0.964401
vt 0.035599 0.935337
vt 0.042865 0.935337
vt 0.108259 0.935337
vt 0.100993 0.935337
vt 0.100993 0.877209
vt 0.108259 0.877209
vt 0.115525 0.877209
vt 0.071929 0.935337
vt 0.064663 0.935337
vt 0.064663 0.877209
vt 0.071929 0.877209
vt 0.239048 0.877209
vt 0.239048 0.935337
vt 0.231782 0.935337
vt 0.231782 0.877209
vt 0.224516 0.935337
vt 0.224516 0.877209
vt 0.217250 0.877209
vt 0.217250 0.935337
vt 0.209984 0.877209
vt 0.122791 0.877209
vt 0.093727 0.935337
vt 0.086461 0.877209
vt 0.093727 0.877209
vt 0.013108 0.797725
vt 0.043308 0.767525
vt 0.116218 0.797725
vt 0.086018 0.870636
vt 0.028333 0.935337
vt 0.021067 0.935337
vt 0.209984 0.993465
vt 0.231782 0.964401
vt 0.231782 0.993465
vt 0.013801 0.964401
vt 0.013801 0.935337
vt 0.050131 0.935337
vt 0.130057 0.877209
vt 0.042865 0.877209
vt 0.050131 0.877209
vt 0.159122 0.877209
vt 0.159122 0.935337
vt 0.151856 0.935337
vt 0.151856 0.877209
vt 0.006535 0.964401
vt 0.006535 0.935337
vt 0.170033 0.873811
vt 0.235651 0.829967
vt 0.191806 0.764349
vt 0.126189 0.808194
vt 0.237200 0.631902
vt 0.122288 0.631902
vt 0.007377 0.631902
vt 0.007377 0.516990
vt 0.352112 0.631902
vt 0.352112 0.516990
vt 0.239048 0.964401
vt 0.239048 0.993465
vt 0.013801 0.993465
vt 0.006535 0.993465
vt 0.173654 0.993465
vt 0.173654 0.964401
vt 0.057397 0.964401
vt 0.057397 0.993465
vt 0.122791 0.993465
vt 0.188186 0.993465
vt 0.188186 0.964401
vt 0.180920 0.993465
vt 0.180920 0.964401
vt 0.180920 0.877209
vt 0.180920 0.935337
vt 0.144589 0.877209
vt 0.137323 0.877209
vt 0.021067 0.877209
vt 0.028333 0.877209
vt 0.188186 0.877209
vt 0.188186 0.935337
vt 0.202718 0.877209
vt 0.195452 0.935337
vt 0.195452 0.877209
vt 0.013801 0.877209
vt 0.035599 0.877209
vt 0.057397 0.935337
vt 0.057397 0.877209
vt 0.006535 0.877209
vt 0.079195 0.877209
vt 0.237200 0.746813
vt 0.122288 0.746813
vt 0.075550 0.873811
vt 0.064663 0.874884
vt 0.053776 0.873811
vt 0.043308 0.870636
vt 0.033660 0.865479
vt 0.013108 0.840435
vt 0.025204 0.858539
vt 0.018264 0.850083
vt 0.009932 0.829967
vt 0.008860 0.819080
vt 0.009932 0.808194
vt 0.018264 0.788078
vt 0.025204 0.779621
vt 0.033660 0.772682
vt 0.053776 0.764349
vt 0.064663 0.763277
vt 0.075550 0.764349
vt 0.086018 0.767525
vt 0.095666 0.772682
vt 0.104122 0.779621
vt 0.111062 0.788078
vt 0.119394 0.808194
vt 0.120466 0.819080
vt 0.119394 0.829967
vt 0.116218 0.840435
vt 0.111062 0.850083
vt 0.104122 0.858539
vt 0.095666 0.865479
vt 0.180920 0.874884
vt 0.211922 0.865479
vt 0.191806 0.873811
vt 0.202275 0.870636
vt 0.220379 0.858539
vt 0.227318 0.850083
vt 0.232475 0.840435
vt 0.236723 0.819080
vt 0.235651 0.808194
vt 0.232475 0.797725
vt 0.227318 0.788078
vt 0.220379 0.779621
vt 0.211922 0.772682
vt 0.202275 0.767525
vt 0.180920 0.763277
vt 0.149917 0.772682
vt 0.170033 0.764349
vt 0.159565 0.767525
vt 0.141461 0.779621
vt 0.134521 0.788078
vt 0.129364 0.797725
vt 0.125116 0.819080
vt 0.126189 0.829967
vt 0.129364 0.840435
vt 0.134521 0.850083
vt 0.141461 0.858539
vt 0.149917 0.865479
vt 0.159565 0.870636
vn 0.9882 0.1491 0.0337
vn 0.9892 0.1442 0.0252
vn 0.9888 0.1463 0.0294
vn 0.3005 -0.8393 -0.4530
vn -0.7131 -0.6317 -0.3041
vn -0.7973 0.5976 0.0845
vn -0.7990 0.5953 0.0844
vn -0.7974 0.5976 0.0845
vn 0.6243 -0.6803 -0.3840
vn 0.8763 -0.4064 -0.2588
vn 0.0519 0.5266 -0.8485
vn 0.6666 -0.7378 -0.1058
vn 0.6653 -0.7391 -0.1058
vn 0.6653 -0.7390 -0.1058
vn 0.7316 0.6728 0.1102
vn 0.7319 0.6724 0.1103
vn 0.7313 0.6737 0.1063
vn -0.3986 -0.8165 -0.4177
vn 0.9952 -0.0454 -0.0870
vn -0.6184 0.6724 0.4067
vn -0.2262 -0.8643 -0.4492
vn -0.9539 0.2318 0.1908
vn -0.5631 -0.7391 -0.3695
vn 0.4680 -0.7744 -0.4257
vn 0.2276 0.8724 0.4326
vn 0.9560 -0.2334 -0.1775
vn 0.8449 0.4991 0.1923
vn -0.6337 0.3802 -0.6737
vn 0.9384 0.3399 0.0626
vn 0.9389 0.3400 0.0536
vn 0.9380 0.3411 0.0619
vn 0.0382 0.9887 0.1451
vn 0.0435 0.9881 0.1477
vn 0.0412 0.9884 0.1461
vn 0.5683 0.7495 0.3396
vn -0.4170 -0.8998 -0.1284
vn -0.4161 -0.9003 -0.1279
vn -0.4114 -0.9017 -0.1332
vn 0.9684 -0.2476 -0.0302
vn 0.9684 -0.2475 -0.0301
vn 0.9674 -0.2511 -0.0328
vn 0.9986 -0.0520 -0.0004
vn 0.9984 -0.0561 -0.0028
vn 0.9985 -0.0554 -0.0039
vn 0.3355 -0.9322 -0.1355
vn 0.3365 -0.9319 -0.1352
vn -0.9893 -0.1439 -0.0254
vn -0.9889 -0.1471 -0.0223
vn -0.9883 -0.1508 -0.0207
vn -0.9985 0.0553 0.0038
vn -0.9987 0.0514 0.0060
vn -0.9987 0.0516 0.0059
vn -0.8985 0.4349 0.0599
vn -0.9001 0.4315 0.0604
vn 0.9893 0.1440 0.0253
vn -0.9674 0.2511 0.0327
vn -0.9684 0.2472 0.0340
vn -0.9684 0.2473 0.0339
vn 0.7973 -0.5977 -0.0839
vn 0.7973 -0.5977 -0.0840
vn 0.7956 -0.5999 -0.0846
vn -0.1085 -0.0865 0.9903
vn -0.1077 -0.0865 0.9904
vn -0.1069 -0.0865 0.9905
vn -0.7294 -0.6766 -0.1009
vn -0.7322 -0.6745 -0.0944
vn -0.7300 -0.6768 -0.0954
vn -0.7567 0.5508 0.3522
vn -0.9950 0.0450 0.0890
vn -0.8515 -0.5182 -0.0795
vn -0.8518 -0.5189 -0.0717
vn -0.8515 -0.5193 -0.0720
vn -0.2343 -0.9623 -0.1385
vn -0.2346 -0.9620 -0.1397
vn -0.2294 -0.9627 -0.1432
vn 0.9398 0.3376 0.0535
vn -0.2283 -0.9632 -0.1422
vn 0.4118 0.9014 0.1339
vn 0.4175 0.8981 0.1385
vn 0.4145 0.8997 0.1366
vn -0.9403 -0.3364 -0.0517
vn -0.9387 -0.3416 -0.0464
vn -0.9401 -0.3377 -0.0466
vn -0.0054 0.1413 -0.9899
vn -0.0052 0.1414 -0.9899
vn -0.0043 0.1415 -0.9899
vn 0.6337 0.3599 -0.6848
vn 0.9694 -0.2440 -0.0275
vn 0.0564 -0.4634 -0.8844
vn 0.0561 -0.4629 -0.8846
vn 0.0555 -0.4619 -0.8852
vn -0.0302 0.9593 -0.2808
vn 0.5939 0.4208 -0.6857
vn 0.0600 -0.4686 -0.8814
vn 0.0322 0.9838 -0.1766
vn -0.9885 -0.1498 -0.0197
vn -0.9890 -0.1464 -0.0188
vn -0.9890 -0.1467 -0.0194
vn -0.9357 -0.3299 -0.1249
vn 0.7186 0.6399 0.2721
vn 0.0500 0.8877 0.4577
vn -0.0500 -0.8839 -0.4651
vn -0.8715 0.4027 0.2797
vn 0.9891 0.1473 0.0082
vn -0.8408 -0.4939 -0.2217
vn -0.4640 0.7668 0.4435
vn -0.2988 0.8342 0.4635
vn -0.1262 0.8746 0.4681
vn 0.1265 -0.8756 -0.4662
vn 0.4021 0.8269 0.3932
vn 0.7629 -0.5569 -0.3283
vn 0.9375 0.3324 0.1030
vn -0.1520 0.9780 0.1428
vn -0.1499 0.9783 0.1430
vn -0.1498 0.9783 0.1431
vn 0.7306 0.6751 0.1021
vn 0.5815 0.8046 0.1204
vn 0.5858 0.8005 0.1264
vn 0.5828 0.8038 0.1199
vn 0.8508 0.5181 0.0880
vn 0.8517 0.5166 0.0884
vn 0.8515 0.5183 0.0798
vn 0.2283 0.9632 0.1422
vn 0.2314 0.9622 0.1439
vn 0.2284 0.9631 0.1424
vn -0.7308 -0.6749 -0.1021
vn 0.8520 0.5174 0.0794
vn -0.3364 0.9320 0.1352
vn -0.3355 0.9323 0.1350
vn -0.6639 0.7403 0.1057
vn -0.6652 0.7392 0.1053
vn -0.7958 0.5996 0.0844
vn -0.5091 0.8519 0.1228
vn -0.5094 0.8518 0.1223
vn -0.8520 -0.5175 -0.0795
vn -0.4117 -0.9014 -0.1339
vn -0.5805 -0.8056 -0.1188
vn -0.5832 -0.8044 -0.1132
vn -0.5816 -0.8045 -0.1204
vn -0.0411 -0.9887 -0.1441
vn -0.0437 -0.9887 -0.1433
vn -0.0381 -0.9887 -0.1451
vn 0.1499 -0.9784 -0.1426
vn 0.1500 -0.9784 -0.1426
vn 0.1520 -0.9780 -0.1427
vn -0.9397 -0.3378 -0.0536
vn 0.5096 -0.8516 -0.1230
vn 0.5097 -0.8515 -0.1230
vn 0.5092 -0.8519 -0.1226
vn 0.5852 0.8008 0.1273
vn 0.4170 0.8982 0.1392
vn 0.2344 0.9612 0.1457
vn 0.0440 0.9881 0.1471
vn -0.5097 0.8517 0.1219
vn -0.3346 0.9327 0.1348
vn 0.1479 -0.9787 -0.1424
vn -0.6665 0.7381 0.1049
vn -0.9017 0.4281 0.0609
vn -0.9693 0.2433 0.0352
vn 0.9018 -0.4285 -0.0568
vn 0.9002 -0.4316 -0.0584
vn 0.9001 -0.4317 -0.0584
vn 0.5095 -0.8516 -0.1235
vn 0.3345 -0.9326 -0.1358
vn -0.1477 0.9786 0.1433
vn 0.7990 -0.5955 -0.0833
vn -0.0178 -0.4776 0.8784
vn -0.5851 -0.8030 -0.1135
vn -0.1068 -0.0865 0.9905
vn -0.1053 -0.0864 0.9907
vn -0.1076 -0.0865 0.9904
vn -0.1074 -0.0866 0.9904
vn -0.1071 -0.0863 0.9905
vn -0.1078 -0.0864 0.9904
vn -0.1082 -0.0861 0.9904
vn -0.1071 -0.0858 0.9905
vn -0.1078 -0.0862 0.9904
vn -0.1073 -0.0862 0.9905
vn -0.1076 -0.0866 0.9904
vn -0.1086 -0.0864 0.9903
vn -0.1084 -0.0865 0.9903
vn -0.1061 -0.0866 0.9906
vn -0.1077 -0.0864 0.9904
vn -0.1082 -0.0864 0.9904
vn -0.1082 -0.0865 0.9904
vn -0.1080 -0.0863 0.9904
vn -0.1075 -0.0861 0.9905
vn -0.1074 -0.0868 0.9904
vn -0.1077 -0.0867 0.9904
vn -0.1077 -0.0866 0.9904
vn -0.1067 -0.0864 0.9905
vn -0.1068 -0.0864 0.9905
vn -0.1036 -0.0866 0.9908
vn -0.0056 0.1414 -0.9899
vn -0.0050 0.1414 -0.9899
vn -0.0064 0.1414 -0.9899
vn -0.0078 0.1415 -0.9899
vn -0.0052 0.1415 -0.9899
vn -0.0030 0.1417 -0.9899
vn -0.0053 0.1417 -0.9899
vn -0.0050 0.1406 -0.9901
vn -0.0052 0.1419 -0.9899
vn -0.0052 0.1412 -0.9900
vn -0.0070 0.1408 -0.9900
vn -0.0042 0.1419 -0.9899
vn 0.0009 0.1416 -0.9899
vn -0.0055 0.1413 -0.9899
vn -0.0055 0.1414 -0.9899
vn -0.0087 0.1412 -0.9899
vn -0.0087 0.1408 -0.9900
vn -0.0044 0.1414 -0.9899
vn -0.0066 0.1423 -0.9898
vn -0.0043 0.1406 -0.9901
vn -0.0054 0.1408 -0.9900
vn -0.0051 0.1411 -0.9900
vn -0.0054 0.1413 -0.9900
vn -0.0079 0.1410 -0.9900
vn -0.0044 0.1412 -0.9900
vn 0.8985 -0.4348 -0.0600
vn 0.9988 -0.0485 0.0032
vn -0.9988 0.0477 0.0081
vn -0.0438 -0.9887 -0.1432
vn 0.6640 -0.7402 -0.1057
usemtl Regadera
s 1
f 1/1/1 2/2/1 3/3/2 4/4/3
f 5/5/4 6/6/4 7/7/4 8/8/4
f 9/9/5 10/10/5 11/11/5 12/12/5
f 13/13/6 14/14/7 15/15/7 16/16/8
f 17/17/9 18/18/9 19/19/9 20/20/9
f 21/21/10 22/22/10 23/23/10 24/24/10
f 25/25/11 26/26/11 27/27/11 28/28/11
f 20/20/12 19/19/12 29/29/13 30/30/14
f 31/31/15 32/32/16 33/33/16 34/34/17
f 35/35/18 36/36/18 37/37/18 38/38/18
f 39/39/19 40/40/19 41/41/19 2/2/19
f 15/15/20 42/42/20 43/43/20 44/44/20
f 45/45/21 46/46/21 36/36/21 35/35/21
f 47/47/22 48/48/22 49/49/22 50/50/22
f 38/38/23 37/37/23 10/10/23 9/9/23
f 18/18/24 5/5/24 8/8/24 19/19/24
f 51/51/25 52/52/25 53/53/25 54/54/25
f 40/40/26 21/21/26 24/24/26 41/41/26
f 55/55/27 56/56/27 57/57/27 33/33/27
f 58/58/28 59/59/28 26/26/28 25/25/28
f 57/57/29 1/1/29 4/4/30 60/60/31
f 61/61/32 62/62/33 63/63/34 64/64/32
f 65/65/35 66/66/35 32/32/35 67/67/35
f 35/35/36 38/38/36 68/68/37 69/69/38
f 70/70/39 71/71/40 72/72/41 73/73/41
f 3/3/42 70/70/43 73/73/44 74/74/44
f 75/75/45 76/76/45 77/77/46 78/78/46
f 79/79/47 80/80/48 81/81/49 82/82/47
f 82/82/50 81/81/51 83/83/52 84/84/50
f 85/85/53 86/86/54 13/13/54 87/87/53
f 4/4/3 3/3/2 74/74/55 88/88/55
f 84/84/56 83/83/57 86/86/58 85/85/56
f 89/89/59 30/30/60 90/90/61 91/91/61
f 18/92/62 40/93/63 51/94/63 48/95/64
f 92/96/65 9/9/66 12/12/66 93/97/67
f 14/14/68 94/98/68 42/42/68 15/15/68
f 95/99/69 96/100/69 48/48/69 47/47/69
f 93/97/70 12/12/71 97/101/71 98/102/72
f 45/45/73 35/35/73 69/69/74 99/103/75
f 60/60/31 4/4/30 88/88/76 100/104/76
f 99/103/75 69/69/74 101/105/77 102/106/77
f 103/107/78 104/108/79 105/109/80 106/110/78
f 98/102/81 97/101/82 107/111/82 80/112/83
f 108/113/84 109/114/85 100/115/86 78/116/85
f 28/28/87 110/117/87 111/118/87
f 41/41/88 24/24/88 71/71/40 70/70/39
f 28/28/89 58/119/90 25/120/91
f 27/27/92 59/121/92 110/117/92
f 28/28/93 27/27/93 110/117/93
f 28/28/89 111/118/94 58/119/90
f 27/27/95 26/122/95 59/121/95
f 107/123/96 112/124/97 96/100/97 95/99/98
f 97/101/99 113/125/99 112/126/99 107/111/99
f 66/66/100 55/55/100 33/33/100 32/32/100
f 114/127/101 51/51/101 54/54/101 115/128/101
f 116/129/102 117/130/102 46/46/102 45/45/102
f 50/50/103 49/49/103 94/98/103 14/14/103
f 118/131/104 39/39/104 2/2/104 1/1/104
f 12/12/105 11/11/105 113/125/105 97/101/105
f 44/44/106 43/43/106 119/132/106 120/133/106
f 120/133/107 119/132/107 121/134/107 122/135/107
f 121/134/108 114/127/108 115/128/108 122/135/108
f 6/6/109 117/130/109 116/129/109 7/7/109
f 52/52/110 65/65/110 67/67/110 53/53/110
f 22/22/111 17/17/111 20/20/111 23/23/111
f 56/56/112 118/131/112 1/1/112 57/57/112
f 123/136/113 124/137/114 62/62/115 61/61/113
f 125/138/116 31/31/15 34/34/17 126/139/116
f 106/110/117 105/109/118 31/31/119 125/138/117
f 34/34/120 33/33/121 57/57/121 60/60/122
f 64/64/123 63/63/124 104/108/125 103/107/123
f 92/96/65 93/97/67 127/140/126 128/141/126
f 34/34/120 60/60/122 100/104/127 126/139/127
f 109/142/128 129/143/129 124/137/129 123/136/128
f 130/144/130 16/16/131 131/145/131 132/146/130
f 87/87/132 13/13/6 16/16/8 130/144/132
f 132/146/133 131/145/134 129/143/134 109/142/133
f 93/97/70 98/102/72 108/147/135 127/140/135
f 69/69/38 68/68/37 133/148/136 101/105/136
f 68/68/137 92/96/138 128/141/139 133/148/139
f 134/149/140 99/103/141 102/106/142 135/150/142
f 76/76/143 134/149/144 135/150/145 77/77/145
f 108/147/146 98/102/81 80/112/83 79/151/146
f 29/29/147 75/75/148 78/78/149 136/152/149
f 105/109/118 67/67/150 32/32/150 31/31/119
f 104/108/79 53/53/151 67/67/151 105/109/80
f 63/63/124 54/54/152 53/53/152 104/108/125
f 62/62/33 115/128/153 54/54/153 63/63/34
f 131/145/134 44/44/154 120/133/154 129/143/134
f 129/143/129 120/133/155 122/135/155 124/137/129
f 7/7/156 116/129/156 134/149/144 76/76/143
f 16/16/131 15/15/157 44/44/157 131/145/131
f 86/86/54 50/50/158 14/14/158 13/13/54
f 83/83/57 47/47/159 50/50/159 86/86/58
f 24/24/160 23/23/160 89/89/161 71/71/162
f 19/19/163 8/8/163 75/75/148 29/29/147
f 8/8/164 7/7/164 76/76/45 75/75/45
f 124/137/114 122/135/165 115/128/165 62/62/115
f 23/23/166 20/20/166 30/30/60 89/89/59
f 110/117/167 59/153/167 58/154/167 111/118/167
f 68/68/137 38/38/168 9/9/168 92/96/138
f 48/95/64 96/155/169 112/156/170
f 112/156/170 113/157/171 48/95/64
f 113/157/171 11/158/172 48/95/64
f 11/158/172 10/159/173 46/160/174
f 10/159/173 37/161/175 46/160/174
f 37/161/175 36/162/176 46/160/174
f 46/160/174 117/163/177 6/164/178
f 6/164/178 5/165/179 46/160/174
f 5/165/179 18/92/62 46/160/174
f 18/92/62 17/166/180 22/167/181
f 22/167/181 21/168/182 40/93/63
f 40/93/63 39/169/183 118/170/181
f 118/170/181 56/171/181 55/172/184
f 55/172/184 66/173/185 51/94/63
f 66/173/185 65/174/186 51/94/63
f 65/174/186 52/175/187 51/94/63
f 51/94/63 114/176/188 121/177/189
f 121/177/189 119/178/63 51/94/63
f 119/178/63 43/179/190 51/94/63
f 43/179/190 42/180/191 94/181/192
f 94/181/192 49/182/193 48/95/64
f 18/92/62 22/167/181 40/93/63
f 40/93/63 118/170/181 51/94/63
f 118/170/181 55/172/184 51/94/63
f 43/179/190 94/181/192 51/94/63
f 94/181/192 48/95/64 51/94/63
f 48/95/64 11/158/172 46/160/174
f 46/160/174 18/92/62 48/95/64
f 108/113/84 79/183/194 85/184/195
f 79/183/194 82/185/196 85/184/195
f 82/185/196 84/186/197 85/184/195
f 85/184/195 87/187/198 130/188/199
f 130/188/199 132/189/200 85/184/195
f 132/189/200 109/114/85 85/184/195
f 109/114/85 123/190/201 61/191/202
f 61/191/202 64/192/203 109/114/85
f 64/192/203 103/193/203 109/114/85
f 103/193/203 106/194/204 125/195/205
f 125/195/205 126/196/206 100/115/86
f 100/115/86 88/197/207 72/198/208
f 88/197/207 74/199/194 72/198/208
f 74/199/194 73/200/209 72/198/208
f 72/198/208 91/201/210 90/202/211
f 90/202/211 136/203/212 78/116/85
f 78/116/85 77/204/213 135/205/214
f 135/205/214 102/206/215 101/207/216
f 101/207/216 133/208/198 108/113/84
f 133/208/198 128/209/217 108/113/84
f 128/209/217 127/210/218 108/113/84
f 103/193/203 125/195/205 100/115/86
f 72/198/208 90/202/211 78/116/85
f 78/116/85 135/205/214 108/113/84
f 135/205/214 101/207/216 108/113/84
f 108/113/84 85/184/195 109/114/85
f 109/114/85 103/193/203 100/115/86
f 100/115/86 72/198/208 78/116/85
f 71/71/162 89/89/161 91/91/219 72/72/219
f 2/2/220 41/41/220 70/70/43 3/3/42
f 81/81/51 95/99/221 47/47/221 83/83/52
f 80/80/48 107/123/96 95/99/98 81/81/49
f 116/129/222 45/45/222 99/103/141 134/149/140
f 30/30/14 29/29/13 136/152/223 90/90/223
