# Blender v2.90.1 OBJ File: 'Palmera.blend'
# www.blender.org
mtllib Palmera Bottom 1.mtl
o Palmera_D2.1_Cilindro.002
v 10.595208 0.073112 6.276489
v 10.641572 0.073112 6.281055
v 10.686154 0.073112 6.294579
v 10.727242 0.073112 6.316541
v 10.763255 0.073112 6.346096
v 10.792810 0.073112 6.382109
v 10.814772 0.073112 6.423197
v 10.828296 0.073112 6.467779
v 10.832863 0.073112 6.514143
v 10.828296 0.073112 6.560507
v 10.814772 0.073112 6.605089
v 10.792810 0.073112 6.646177
v 10.763255 0.073112 6.682190
v 10.727242 0.073112 6.711745
v 10.686154 0.073112 6.733707
v 10.641572 0.073112 6.747231
v 10.595208 0.073112 6.751797
v 10.548844 0.073112 6.747231
v 10.504262 0.073112 6.733707
v 10.463175 0.073112 6.711745
v 10.427161 0.073112 6.682190
v 10.397606 0.073112 6.646176
v 10.375644 0.073112 6.605089
v 10.362121 0.073112 6.560507
v 10.357553 0.073112 6.514143
v 10.362121 0.073112 6.467779
v 10.375645 0.073112 6.423196
v 10.397606 0.073112 6.382109
v 10.427161 0.073112 6.346096
v 10.463175 0.073112 6.316541
v 10.504262 0.073112 6.294579
v 10.548844 0.073112 6.281055
v 10.595208 0.687822 6.288547
v 10.639220 0.687822 6.292881
v 10.681540 0.687822 6.305719
v 10.720543 0.687822 6.326567
v 10.754729 0.687822 6.354622
v 10.782784 0.687822 6.388808
v 10.803632 0.687822 6.427811
v 10.816470 0.687822 6.470131
v 10.820805 0.687822 6.514143
v 10.816470 0.687822 6.558155
v 10.803632 0.687822 6.600475
v 10.782784 0.687822 6.639478
v 10.754729 0.687822 6.673664
v 10.720543 0.687822 6.701720
v 10.681540 0.687822 6.722567
v 10.639220 0.687822 6.735404
v 10.595208 0.687822 6.739739
v 10.551196 0.687822 6.735404
v 10.508876 0.687822 6.722567
v 10.469873 0.687822 6.701719
v 10.435687 0.687822 6.673664
v 10.407632 0.687822 6.639478
v 10.386785 0.687822 6.600475
v 10.373946 0.687822 6.558155
v 10.369612 0.687822 6.514143
v 10.373946 0.687822 6.470131
v 10.386785 0.687822 6.427811
v 10.407632 0.687822 6.388808
v 10.435688 0.687822 6.354622
v 10.469873 0.687822 6.326566
v 10.508877 0.687822 6.305719
v 10.551197 0.687822 6.292881
v 10.595208 1.132618 6.362628
v 10.636207 1.132619 6.366666
v 10.675630 1.132619 6.378625
v 10.711963 1.132619 6.398045
v 10.743809 1.132619 6.424180
v 10.769943 1.132619 6.456026
v 10.789364 1.132619 6.492358
v 10.801323 1.132619 6.531782
v 10.805361 1.132619 6.572780
v 10.801323 1.132619 6.613779
v 10.789364 1.132619 6.653202
v 10.769943 1.132619 6.689535
v 10.743809 1.132619 6.721380
v 10.711963 1.132619 6.747516
v 10.675630 1.132619 6.766936
v 10.636207 1.132619 6.778894
v 10.595208 1.132619 6.782933
v 10.554210 1.132619 6.778894
v 10.514786 1.132619 6.766936
v 10.478454 1.132619 6.747516
v 10.446608 1.132619 6.721380
v 10.420473 1.132619 6.689535
v 10.401052 1.132619 6.653202
v 10.389093 1.132619 6.613779
v 10.385056 1.132619 6.572780
v 10.389093 1.132619 6.531781
v 10.401052 1.132619 6.492358
v 10.420473 1.132619 6.456026
v 10.446609 1.132619 6.424180
v 10.478454 1.132619 6.398045
v 10.514787 1.132619 6.378624
v 10.554210 1.132619 6.366666
vt 0.794889 0.835023
vt 0.782320 0.836261
vt 0.770234 0.839927
vt 0.759096 0.845881
vt 0.749333 0.853893
vt 0.741320 0.863656
vt 0.735367 0.874795
vt 0.731700 0.886881
vt 0.730463 0.899450
vt 0.731700 0.912019
vt 0.735367 0.924104
vt 0.741320 0.935243
vt 0.749333 0.945006
vt 0.759096 0.953018
vt 0.770234 0.958972
vt 0.782320 0.962638
vt 0.794889 0.963876
vt 0.807458 0.962638
vt 0.819544 0.958972
vt 0.830682 0.953018
vt 0.840445 0.945006
vt 0.848457 0.935243
vt 0.854411 0.924104
vt 0.858077 0.912019
vt 0.859315 0.899450
vt 0.858077 0.886881
vt 0.854411 0.874795
vt 0.848457 0.863656
vt 0.840445 0.853893
vt 0.830682 0.845881
vt 0.819544 0.839927
vt 0.807458 0.836261
vt 0.988554 0.830170
vt 0.987073 0.743983
vt 0.995461 0.743839
vt 0.996942 0.830026
vt 0.980167 0.830314
vt 0.978686 0.744128
vt 0.971779 0.830458
vt 0.970298 0.744272
vt 0.963392 0.830603
vt 0.961910 0.744416
vt 0.955004 0.830747
vt 0.953523 0.744560
vt 0.946616 0.830891
vt 0.945135 0.744704
vt 0.938229 0.831035
vt 0.936747 0.744848
vt 0.929841 0.831179
vt 0.928360 0.744992
vt 0.921454 0.831323
vt 0.919972 0.745137
vt 0.913066 0.831468
vt 0.911585 0.745281
vt 0.904678 0.831612
vt 0.903197 0.745425
vt 0.896291 0.831756
vt 0.894809 0.745569
vt 0.887903 0.831900
vt 0.886422 0.745713
vt 0.879516 0.832044
vt 0.878034 0.745857
vt 0.871128 0.832188
vt 0.869647 0.746002
vt 0.862740 0.832332
vt 0.861259 0.746146
vt 0.854353 0.832477
vt 0.852871 0.746290
vt 0.845965 0.832621
vt 0.844484 0.746434
vt 0.837578 0.832765
vt 0.836096 0.746578
vt 0.829190 0.832909
vt 0.827709 0.746722
vt 0.820802 0.833053
vt 0.819321 0.746867
vt 0.812415 0.833197
vt 0.810933 0.747011
vt 0.804027 0.833342
vt 0.802546 0.747155
vt 0.795639 0.833486
vt 0.794158 0.747299
vt 0.787252 0.833630
vt 0.785770 0.747443
vt 0.778864 0.833774
vt 0.777383 0.747587
vt 0.770477 0.833918
vt 0.768995 0.747731
vt 0.762089 0.834062
vt 0.760608 0.747876
vt 0.753701 0.834207
vt 0.752220 0.748020
vt 0.745314 0.834351
vt 0.743832 0.748164
vt 0.736926 0.834495
vt 0.735445 0.748308
vt 0.728539 0.834639
vt 0.727057 0.748452
vt 0.988181 0.745326
vt 0.987479 0.636504
vt 0.995867 0.636449
vt 0.996570 0.745272
vt 0.979792 0.745381
vt 0.979090 0.636558
vt 0.971403 0.745435
vt 0.970701 0.636612
vt 0.963015 0.745489
vt 0.962313 0.636666
vt 0.954626 0.745543
vt 0.953924 0.636720
vt 0.946237 0.745597
vt 0.945535 0.636774
vt 0.937849 0.745651
vt 0.937147 0.636828
vt 0.929460 0.745705
vt 0.928758 0.636882
vt 0.921072 0.745759
vt 0.920369 0.636937
vt 0.912683 0.745813
vt 0.911981 0.636991
vt 0.904294 0.745867
vt 0.903592 0.637045
vt 0.895905 0.745922
vt 0.895203 0.637099
vt 0.887517 0.745976
vt 0.886815 0.637153
vt 0.879128 0.746030
vt 0.878426 0.637207
vt 0.870739 0.746084
vt 0.870037 0.637261
vt 0.862351 0.746138
vt 0.861648 0.637316
vt 0.853962 0.746192
vt 0.853260 0.637370
vt 0.845573 0.746247
vt 0.844871 0.637424
vt 0.837185 0.746301
vt 0.836482 0.637478
vt 0.828796 0.746355
vt 0.828094 0.637532
vt 0.820407 0.746409
vt 0.819705 0.637586
vt 0.812019 0.746463
vt 0.811316 0.637640
vt 0.803630 0.746517
vt 0.802928 0.637694
vt 0.795241 0.746571
vt 0.794539 0.637749
vt 0.786853 0.746625
vt 0.786150 0.637803
vt 0.778464 0.746680
vt 0.777762 0.637857
vt 0.770075 0.746734
vt 0.769373 0.637911
vt 0.761687 0.746788
vt 0.760984 0.637965
vt 0.753298 0.746842
vt 0.752596 0.638019
vt 0.744909 0.746896
vt 0.744207 0.638073
vt 0.736521 0.746950
vt 0.735819 0.638127
vt 0.728132 0.747004
vt 0.727430 0.638182
vn 0.0000 -1.0000 -0.0000
vn -0.0980 0.0195 -0.9950
vn -0.2902 0.0195 -0.9568
vn -0.4713 0.0195 -0.8818
vn -0.6343 0.0195 -0.7729
vn -0.7729 0.0195 -0.6343
vn -0.8818 0.0195 -0.4713
vn -0.9568 0.0195 -0.2902
vn -0.9950 0.0195 -0.0980
vn -0.9950 0.0195 0.0980
vn -0.9568 0.0195 0.2902
vn -0.8818 0.0195 0.4713
vn -0.7729 0.0195 0.6343
vn -0.6343 0.0195 0.7729
vn -0.4713 0.0195 0.8818
vn -0.2902 0.0195 0.9568
vn -0.0980 0.0195 0.9950
vn 0.0980 0.0195 0.9950
vn 0.2902 0.0195 0.9568
vn 0.4713 0.0195 0.8818
vn 0.6343 0.0195 0.7729
vn 0.7729 0.0195 0.6343
vn 0.8818 0.0195 0.4713
vn 0.9568 0.0195 0.2902
vn 0.9950 0.0195 0.0980
vn 0.9950 0.0195 -0.0980
vn 0.9568 0.0195 -0.2902
vn 0.8818 0.0195 -0.4713
vn 0.7729 0.0195 -0.6343
vn 0.6343 0.0195 -0.7729
vn 0.4713 0.0195 -0.8817
vn 0.2902 0.0195 -0.9568
vn 0.0980 0.0195 -0.9950
vn -0.0967 0.1635 -0.9818
vn -0.2866 0.1587 -0.9448
vn -0.4661 0.1491 -0.8721
vn -0.6286 0.1352 -0.7659
vn -0.7677 0.1174 -0.6300
vn -0.8778 0.0962 -0.4692
vn -0.9544 0.0726 -0.2895
vn -0.9941 0.0474 -0.0979
vn -0.9950 0.0216 0.0980
vn -0.9569 -0.0037 0.2903
vn -0.8816 -0.0276 0.4712
vn -0.7721 -0.0490 0.6336
vn -0.6330 -0.0672 0.7713
vn -0.4698 -0.0814 0.8790
vn -0.2891 -0.0912 0.9530
vn -0.0976 -0.0962 0.9906
vn 0.0976 -0.0962 0.9906
vn 0.2891 -0.0912 0.9530
vn 0.4698 -0.0814 0.8790
vn 0.6330 -0.0672 0.7713
vn 0.7721 -0.0490 0.6336
vn 0.8816 -0.0276 0.4712
vn 0.9569 -0.0037 0.2903
vn 0.9950 0.0216 0.0980
vn 0.9941 0.0474 -0.0979
vn 0.9544 0.0726 -0.2895
vn 0.8778 0.0962 -0.4692
vn 0.7677 0.1174 -0.6300
vn 0.6286 0.1352 -0.7659
vn 0.4661 0.1491 -0.8721
vn 0.2866 0.1587 -0.9448
vn 0.0967 0.1635 -0.9818
usemtl Palmera.003
s off
f 1/1/1 2/2/1 3/3/1 4/4/1 5/5/1 6/6/1 7/7/1 8/8/1 9/9/1 10/10/1 11/11/1 12/12/1 13/13/1 14/14/1 15/15/1 16/16/1 17/17/1 18/18/1 19/19/1 20/20/1 21/21/1 22/22/1 23/23/1 24/24/1 25/25/1 26/26/1 27/27/1 28/28/1 29/29/1 30/30/1 31/31/1 32/32/1
f 32/33/2 64/34/2 33/35/2 1/36/2
f 31/37/3 63/38/3 64/34/3 32/33/3
f 30/39/4 62/40/4 63/38/4 31/37/4
f 29/41/5 61/42/5 62/40/5 30/39/5
f 28/43/6 60/44/6 61/42/6 29/41/6
f 27/45/7 59/46/7 60/44/7 28/43/7
f 26/47/8 58/48/8 59/46/8 27/45/8
f 25/49/9 57/50/9 58/48/9 26/47/9
f 24/51/10 56/52/10 57/50/10 25/49/10
f 23/53/11 55/54/11 56/52/11 24/51/11
f 22/55/12 54/56/12 55/54/12 23/53/12
f 21/57/13 53/58/13 54/56/13 22/55/13
f 20/59/14 52/60/14 53/58/14 21/57/14
f 19/61/15 51/62/15 52/60/15 20/59/15
f 18/63/16 50/64/16 51/62/16 19/61/16
f 17/65/17 49/66/17 50/64/17 18/63/17
f 16/67/18 48/68/18 49/66/18 17/65/18
f 15/69/19 47/70/19 48/68/19 16/67/19
f 14/71/20 46/72/20 47/70/20 15/69/20
f 13/73/21 45/74/21 46/72/21 14/71/21
f 12/75/22 44/76/22 45/74/22 13/73/22
f 11/77/23 43/78/23 44/76/23 12/75/23
f 10/79/24 42/80/24 43/78/24 11/77/24
f 9/81/25 41/82/25 42/80/25 10/79/25
f 8/83/26 40/84/26 41/82/26 9/81/26
f 7/85/27 39/86/27 40/84/27 8/83/27
f 6/87/28 38/88/28 39/86/28 7/85/28
f 5/89/29 37/90/29 38/88/29 6/87/29
f 4/91/30 36/92/30 37/90/30 5/89/30
f 3/93/31 35/94/31 36/92/31 4/91/31
f 2/95/32 34/96/32 35/94/32 3/93/32
f 1/97/33 33/98/33 34/96/33 2/95/33
f 64/99/34 96/100/34 65/101/34 33/102/34
f 63/103/35 95/104/35 96/100/35 64/99/35
f 62/105/36 94/106/36 95/104/36 63/103/36
f 61/107/37 93/108/37 94/106/37 62/105/37
f 60/109/38 92/110/38 93/108/38 61/107/38
f 59/111/39 91/112/39 92/110/39 60/109/39
f 58/113/40 90/114/40 91/112/40 59/111/40
f 57/115/41 89/116/41 90/114/41 58/113/41
f 56/117/42 88/118/42 89/116/42 57/115/42
f 55/119/43 87/120/43 88/118/43 56/117/43
f 54/121/44 86/122/44 87/120/44 55/119/44
f 53/123/45 85/124/45 86/122/45 54/121/45
f 52/125/46 84/126/46 85/124/46 53/123/46
f 51/127/47 83/128/47 84/126/47 52/125/47
f 50/129/48 82/130/48 83/128/48 51/127/48
f 49/131/49 81/132/49 82/130/49 50/129/49
f 48/133/50 80/134/50 81/132/50 49/131/50
f 47/135/51 79/136/51 80/134/51 48/133/51
f 46/137/52 78/138/52 79/136/52 47/135/52
f 45/139/53 77/140/53 78/138/53 46/137/53
f 44/141/54 76/142/54 77/140/54 45/139/54
f 43/143/55 75/144/55 76/142/55 44/141/55
f 42/145/56 74/146/56 75/144/56 43/143/56
f 41/147/57 73/148/57 74/146/57 42/145/57
f 40/149/58 72/150/58 73/148/58 41/147/58
f 39/151/59 71/152/59 72/150/59 40/149/59
f 38/153/60 70/154/60 71/152/60 39/151/60
f 37/155/61 69/156/61 70/154/61 38/153/61
f 36/157/62 68/158/62 69/156/62 37/155/62
f 35/159/63 67/160/63 68/158/63 36/157/63
f 34/161/64 66/162/64 67/160/64 35/159/64
f 33/163/65 65/164/65 66/162/65 34/161/65
