# Blender v2.90.1 OBJ File: 'Palmera.blend'
# www.blender.org
mtllib Palmera Mid 1.mtl
o Palmera_D2_Cilindro.001
v 10.595208 1.132618 6.362628
v 10.636207 1.132619 6.366666
v 10.675630 1.132619 6.378625
v 10.711963 1.132619 6.398045
v 10.743809 1.132619 6.424180
v 10.769943 1.132619 6.456026
v 10.789364 1.132619 6.492358
v 10.801323 1.132619 6.531782
v 10.805361 1.132619 6.572780
v 10.801323 1.132619 6.613779
v 10.789364 1.132619 6.653202
v 10.769943 1.132619 6.689535
v 10.743809 1.132619 6.721380
v 10.711963 1.132619 6.747516
v 10.675630 1.132619 6.766936
v 10.636207 1.132619 6.778894
v 10.595208 1.132619 6.782933
v 10.554210 1.132619 6.778894
v 10.514786 1.132619 6.766936
v 10.478454 1.132619 6.747516
v 10.446608 1.132619 6.721380
v 10.420473 1.132619 6.689535
v 10.401052 1.132619 6.653202
v 10.389093 1.132619 6.613779
v 10.385056 1.132619 6.572780
v 10.389093 1.132619 6.531781
v 10.401052 1.132619 6.492358
v 10.420473 1.132619 6.456026
v 10.446609 1.132619 6.424180
v 10.478454 1.132619 6.398045
v 10.514787 1.132619 6.378624
v 10.554210 1.132619 6.366666
v 10.595208 1.611108 6.320107
v 10.633062 1.611108 6.323835
v 10.669463 1.611108 6.334877
v 10.703009 1.611108 6.352808
v 10.732412 1.611108 6.376938
v 10.756544 1.611108 6.406342
v 10.774474 1.611108 6.439888
v 10.785517 1.611108 6.476288
v 10.789245 1.611108 6.514143
v 10.785517 1.611108 6.551998
v 10.774474 1.611108 6.588398
v 10.756544 1.611108 6.621944
v 10.732412 1.611108 6.651348
v 10.703009 1.611108 6.675478
v 10.669463 1.611108 6.693409
v 10.633062 1.611108 6.704451
v 10.595208 1.611108 6.708179
v 10.557353 1.611108 6.704451
v 10.520953 1.611108 6.693409
v 10.487407 1.611108 6.675478
v 10.458004 1.611108 6.651348
v 10.433872 1.611108 6.621944
v 10.415942 1.611108 6.588398
v 10.404900 1.611108 6.551998
v 10.401172 1.611108 6.514143
v 10.404900 1.611108 6.476288
v 10.415942 1.611108 6.439888
v 10.433873 1.611108 6.406342
v 10.458004 1.611108 6.376938
v 10.487408 1.611108 6.352808
v 10.520954 1.611108 6.334877
v 10.557354 1.611108 6.323835
v 10.595208 1.984634 6.344752
v 10.630145 1.985012 6.348172
v 10.663739 1.986130 6.358301
v 10.694700 1.987947 6.374750
v 10.721837 1.990392 6.396886
v 10.744108 1.993371 6.423860
v 10.760657 1.996771 6.454633
v 10.770847 2.000459 6.488024
v 10.774288 2.004294 6.522750
v 10.770847 2.008130 6.557476
v 10.760657 2.011818 6.590867
v 10.744108 2.015217 6.621640
v 10.721837 2.018196 6.648613
v 10.694700 2.020641 6.670750
v 10.663739 2.022458 6.687199
v 10.630145 2.023577 6.697328
v 10.595208 2.023955 6.700747
v 10.560271 2.023577 6.697328
v 10.526677 2.022458 6.687198
v 10.495716 2.020641 6.670750
v 10.468579 2.018196 6.648613
v 10.446308 2.015217 6.621640
v 10.429759 2.011818 6.590867
v 10.419569 2.008130 6.557476
v 10.416128 2.004294 6.522750
v 10.419569 2.000459 6.488024
v 10.429760 1.996771 6.454633
v 10.446308 1.993372 6.423859
v 10.468579 1.990392 6.396886
v 10.495717 1.987947 6.374750
v 10.526677 1.986130 6.358301
v 10.560271 1.985012 6.348172
vt 0.989517 0.631902
vt 0.986033 0.516745
vt 0.994418 0.516491
vt 0.997902 0.631648
vt 0.981132 0.632156
vt 0.977648 0.516999
vt 0.972747 0.632409
vt 0.969263 0.517252
vt 0.964362 0.632663
vt 0.960878 0.517506
vt 0.955977 0.632917
vt 0.952493 0.517760
vt 0.947592 0.633170
vt 0.944108 0.518013
vt 0.939207 0.633424
vt 0.935723 0.518267
vt 0.930822 0.633678
vt 0.927338 0.518521
vt 0.922437 0.633931
vt 0.918953 0.518775
vt 0.914052 0.634185
vt 0.910568 0.519028
vt 0.905667 0.634439
vt 0.902183 0.519282
vt 0.897282 0.634692
vt 0.893798 0.519536
vt 0.888897 0.634946
vt 0.885413 0.519789
vt 0.880512 0.635200
vt 0.877028 0.520043
vt 0.872127 0.635453
vt 0.868643 0.520297
vt 0.863742 0.635707
vt 0.860258 0.520550
vt 0.855357 0.635961
vt 0.851873 0.520804
vt 0.846972 0.636214
vt 0.843488 0.521058
vt 0.838587 0.636468
vt 0.835102 0.521311
vt 0.830202 0.636722
vt 0.826718 0.521565
vt 0.821817 0.636976
vt 0.818333 0.521819
vt 0.813432 0.637229
vt 0.809947 0.522072
vt 0.805046 0.637483
vt 0.801562 0.522326
vt 0.796661 0.637737
vt 0.793177 0.522580
vt 0.788276 0.637990
vt 0.784792 0.522833
vt 0.779892 0.638244
vt 0.776408 0.523087
vt 0.771506 0.638498
vt 0.768022 0.523341
vt 0.763121 0.638751
vt 0.759638 0.523594
vt 0.754736 0.639005
vt 0.751252 0.523848
vt 0.746351 0.639259
vt 0.742867 0.524102
vt 0.737966 0.639512
vt 0.734483 0.524356
vt 0.729581 0.639766
vt 0.726097 0.524609
vt 0.991762 0.517237
vt 0.983070 0.403553
vt 0.991431 0.402871
vt 1.000123 0.517029
vt 0.983401 0.517444
vt 0.974709 0.404235
vt 0.975040 0.517651
vt 0.966348 0.404917
vt 0.966679 0.517859
vt 0.957987 0.405599
vt 0.958317 0.518066
vt 0.949626 0.406281
vt 0.949956 0.518273
vt 0.941265 0.406963
vt 0.941595 0.518481
vt 0.932903 0.407645
vt 0.933234 0.518688
vt 0.924542 0.408327
vt 0.924873 0.518895
vt 0.916182 0.409009
vt 0.916512 0.519103
vt 0.907820 0.409691
vt 0.908151 0.519310
vt 0.899459 0.410373
vt 0.899790 0.519518
vt 0.891098 0.411055
vt 0.891429 0.519725
vt 0.882737 0.411737
vt 0.883068 0.519932
vt 0.874376 0.412419
vt 0.874707 0.520140
vt 0.866015 0.413101
vt 0.866345 0.520347
vt 0.857654 0.413783
vt 0.857984 0.520554
vt 0.849293 0.414465
vt 0.849623 0.520762
vt 0.840932 0.415147
vt 0.841262 0.520969
vt 0.832570 0.415829
vt 0.832901 0.521176
vt 0.824209 0.416510
vt 0.824540 0.521384
vt 0.815848 0.417192
vt 0.816179 0.521591
vt 0.807487 0.417874
vt 0.807818 0.521799
vt 0.799126 0.418556
vt 0.799457 0.522006
vt 0.790765 0.419238
vt 0.791096 0.522213
vt 0.782404 0.419920
vt 0.782735 0.522421
vt 0.774043 0.420602
vt 0.774373 0.522628
vt 0.765682 0.421284
vt 0.766012 0.522835
vt 0.757321 0.421966
vt 0.757651 0.523043
vt 0.748960 0.422648
vt 0.749290 0.523250
vt 0.740599 0.423330
vt 0.740929 0.523457
vt 0.732238 0.424012
vt 0.732568 0.523665
vt 0.723876 0.424694
vn -0.0976 -0.0881 -0.9913
vn -0.2893 -0.0835 -0.9536
vn -0.4701 -0.0743 -0.8795
vn -0.6332 -0.0611 -0.7716
vn -0.7723 -0.0442 -0.6338
vn -0.8817 -0.0242 -0.4713
vn -0.9569 -0.0021 -0.2903
vn -0.9950 0.0215 -0.0980
vn -0.9942 0.0455 0.0979
vn -0.9547 0.0689 0.2896
vn -0.8783 0.0909 0.4694
vn -0.7683 0.1106 0.6305
vn -0.6292 0.1272 0.7667
vn -0.4667 0.1402 0.8732
vn -0.2870 0.1491 0.9462
vn -0.0968 0.1536 0.9834
vn 0.0969 0.1536 0.9834
vn 0.2870 0.1491 0.9462
vn 0.4667 0.1402 0.8732
vn 0.6292 0.1272 0.7667
vn 0.7683 0.1106 0.6305
vn 0.8783 0.0909 0.4694
vn 0.9547 0.0689 0.2896
vn 0.9942 0.0455 0.0979
vn 0.9950 0.0215 -0.0980
vn 0.9569 -0.0021 -0.2903
vn 0.8817 -0.0242 -0.4712
vn 0.7723 -0.0442 -0.6338
vn 0.6332 -0.0611 -0.7716
vn 0.4701 -0.0743 -0.8795
vn 0.2893 -0.0835 -0.9536
vn 0.0976 -0.0881 -0.9913
vn -0.0972 0.0655 -0.9931
vn -0.2880 0.0643 -0.9555
vn -0.4681 0.0619 -0.8815
vn -0.6307 0.0586 -0.7738
vn -0.7695 0.0546 -0.6363
vn -0.8791 0.0500 -0.4739
vn -0.9551 0.0451 -0.2930
vn -0.9941 0.0402 -0.1003
vn -0.9947 0.0356 0.0964
vn -0.9567 0.0313 0.2894
vn -0.8816 0.0275 0.4711
vn -0.7725 0.0243 0.6345
vn -0.6337 0.0217 0.7733
vn -0.4707 0.0198 0.8821
vn -0.2898 0.0185 0.9569
vn -0.0978 0.0179 0.9950
vn 0.0978 0.0179 0.9950
vn 0.2897 0.0185 0.9569
vn 0.4707 0.0198 0.8821
vn 0.6337 0.0217 0.7733
vn 0.7725 0.0243 0.6345
vn 0.8816 0.0275 0.4711
vn 0.9567 0.0313 0.2894
vn 0.9947 0.0356 0.0964
vn 0.9941 0.0402 -0.1003
vn 0.9551 0.0451 -0.2929
vn 0.8792 0.0500 -0.4739
vn 0.7695 0.0546 -0.6363
vn 0.6307 0.0586 -0.7738
vn 0.4681 0.0619 -0.8815
vn 0.2880 0.0643 -0.9555
vn 0.0972 0.0655 -0.9931
usemtl Palmera.003
s off
f 32/1/1 64/2/1 33/3/1 1/4/1
f 31/5/2 63/6/2 64/2/2 32/1/2
f 30/7/3 62/8/3 63/6/3 31/5/3
f 29/9/4 61/10/4 62/8/4 30/7/4
f 28/11/5 60/12/5 61/10/5 29/9/5
f 27/13/6 59/14/6 60/12/6 28/11/6
f 26/15/7 58/16/7 59/14/7 27/13/7
f 25/17/8 57/18/8 58/16/8 26/15/8
f 24/19/9 56/20/9 57/18/9 25/17/9
f 23/21/10 55/22/10 56/20/10 24/19/10
f 22/23/11 54/24/11 55/22/11 23/21/11
f 21/25/12 53/26/12 54/24/12 22/23/12
f 20/27/13 52/28/13 53/26/13 21/25/13
f 19/29/14 51/30/14 52/28/14 20/27/14
f 18/31/15 50/32/15 51/30/15 19/29/15
f 17/33/16 49/34/16 50/32/16 18/31/16
f 16/35/17 48/36/17 49/34/17 17/33/17
f 15/37/18 47/38/18 48/36/18 16/35/18
f 14/39/19 46/40/19 47/38/19 15/37/19
f 13/41/20 45/42/20 46/40/20 14/39/20
f 12/43/21 44/44/21 45/42/21 13/41/21
f 11/45/22 43/46/22 44/44/22 12/43/22
f 10/47/23 42/48/23 43/46/23 11/45/23
f 9/49/24 41/50/24 42/48/24 10/47/24
f 8/51/25 40/52/25 41/50/25 9/49/25
f 7/53/26 39/54/26 40/52/26 8/51/26
f 6/55/27 38/56/27 39/54/27 7/53/27
f 5/57/28 37/58/28 38/56/28 6/55/28
f 4/59/29 36/60/29 37/58/29 5/57/29
f 3/61/30 35/62/30 36/60/30 4/59/30
f 2/63/31 34/64/31 35/62/31 3/61/31
f 1/65/32 33/66/32 34/64/32 2/63/32
f 64/67/33 96/68/33 65/69/33 33/70/33
f 63/71/34 95/72/34 96/68/34 64/67/34
f 62/73/35 94/74/35 95/72/35 63/71/35
f 61/75/36 93/76/36 94/74/36 62/73/36
f 60/77/37 92/78/37 93/76/37 61/75/37
f 59/79/38 91/80/38 92/78/38 60/77/38
f 58/81/39 90/82/39 91/80/39 59/79/39
f 57/83/40 89/84/40 90/82/40 58/81/40
f 56/85/41 88/86/41 89/84/41 57/83/41
f 55/87/42 87/88/42 88/86/42 56/85/42
f 54/89/43 86/90/43 87/88/43 55/87/43
f 53/91/44 85/92/44 86/90/44 54/89/44
f 52/93/45 84/94/45 85/92/45 53/91/45
f 51/95/46 83/96/46 84/94/46 52/93/46
f 50/97/47 82/98/47 83/96/47 51/95/47
f 49/99/48 81/100/48 82/98/48 50/97/48
f 48/101/49 80/102/49 81/100/49 49/99/49
f 47/103/50 79/104/50 80/102/50 48/101/50
f 46/105/51 78/106/51 79/104/51 47/103/51
f 45/107/52 77/108/52 78/106/52 46/105/52
f 44/109/53 76/110/53 77/108/53 45/107/53
f 43/111/54 75/112/54 76/110/54 44/109/54
f 42/113/55 74/114/55 75/112/55 43/111/55
f 41/115/56 73/116/56 74/114/56 42/113/56
f 40/117/57 72/118/57 73/116/57 41/115/57
f 39/119/58 71/120/58 72/118/58 40/117/58
f 38/121/59 70/122/59 71/120/59 39/119/59
f 37/123/60 69/124/60 70/122/60 38/121/60
f 36/125/61 68/126/61 69/124/61 37/123/61
f 35/127/62 67/128/62 68/126/62 36/125/62
f 34/129/63 66/130/63 67/128/63 35/127/63
f 33/131/64 65/132/64 66/130/64 34/129/64
