# Blender v2.90.1 OBJ File: 'duck.blend'
# www.blender.org
mtllib Pata Izq.mtl
o Pata_Izq_Cube.003
v -0.668026 0.259843 4.979326
v -0.668062 0.244832 4.982723
v -0.668369 0.239137 4.971233
v -0.668511 0.250215 4.962230
v -0.663576 0.203173 4.984072
v -0.663263 0.202356 4.996870
v -0.667352 0.192278 5.002603
v -0.667904 0.191156 4.980023
v -0.700858 0.184435 4.975484
v -0.694060 0.185557 5.005074
v -0.789978 0.185557 5.045918
v -0.805091 0.184435 4.977476
vt 0.505058 0.196271
vt 0.489900 0.194812
vt 0.487439 0.179277
vt 0.510474 0.182544
vt 0.505425 0.237402
vt 0.491517 0.242636
vt 0.515186 0.245510
vt 0.489584 0.252283
vt 0.578779 0.244936
vt 0.552528 0.250434
vt 0.537440 0.215168
vt 0.573476 0.214484
vt 0.510968 0.101931
vt 0.593985 0.099492
vn -0.9997 0.0072 0.0238
vn -0.9933 -0.1055 0.0466
vn -0.9338 0.3572 0.0198
vn -0.2194 0.9756 -0.0110
vn -0.0047 0.9998 -0.0218
usemtl Pato.001
s off
f 3/1/1 2/2/1 1/3/1 4/4/1
f 2/2/2 3/1/2 5/5/2 6/6/2
f 6/6/3 5/5/3 8/7/3 7/8/3
f 7/9/4 8/10/4 9/11/4 10/12/4
f 10/12/5 9/11/5 12/13/5 11/14/5
