# Blender v2.90.1 OBJ File: 'duck.blend'
# www.blender.org
mtllib Pato.mtl
o Pato_Cube.001
v -0.492619 0.478527 4.969134
v -0.493061 0.478527 4.866537
v -0.569116 0.300042 5.007016
v -0.569881 0.300042 4.829315
v -0.755430 0.304075 4.997497
v -0.756106 0.304075 4.840439
v -0.757621 0.461190 4.985492
v -0.758194 0.461190 4.852462
v -0.470823 0.505773 4.917741
v -0.550069 0.280541 4.918082
v -0.770940 0.265099 4.919033
v -0.766953 0.495808 4.919016
v -0.536715 0.359083 4.995146
v -0.537379 0.359083 4.840906
v -0.582951 0.454378 4.991771
v -0.583585 0.454378 4.844679
v -0.667135 0.277547 5.010764
v -0.667929 0.277547 4.826411
v -0.760334 0.361679 5.026483
v -0.761260 0.361679 4.811495
v -0.624305 0.368763 5.033941
v -0.625300 0.368763 4.802867
v -0.508049 0.360650 4.917901
v -0.669748 0.225644 4.918597
v -0.840337 0.361679 4.919332
v -0.589230 0.475755 4.918251
v -0.876324 0.407546 4.919487
v -0.857853 0.456576 4.961771
v -0.858218 0.456576 4.877045
v -0.838569 0.508765 4.919324
v -0.842046 0.499096 4.949444
v -0.842305 0.499096 4.889235
v -0.897308 0.524141 4.945402
v -0.897530 0.524141 4.893754
v -0.894678 0.533428 4.919566
v -0.909318 0.483303 4.955330
v -0.909625 0.483303 4.883929
v -0.918103 0.454057 4.919667
v -0.966841 0.468026 4.919877
v -0.959011 0.506056 4.973428
v -0.959473 0.506056 4.866260
v -0.946219 0.571236 4.919788
v -0.948470 0.559160 4.957297
v -0.948793 0.559160 4.882299
v -1.014334 0.545256 4.953882
v -1.014625 0.545256 4.886281
v -1.017300 0.555334 4.920094
v -1.001871 0.500941 4.967497
v -1.002279 0.500941 4.872560
v -0.993192 0.469205 4.919990
v -1.030618 0.483259 4.920151
v -1.037234 0.488461 4.953682
v -1.037523 0.488461 4.886678
v -1.048965 0.512790 4.920230
v -1.046705 0.507194 4.946720
v -1.046933 0.507194 4.893722
v -1.122749 0.485284 4.944176
v -1.122952 0.485284 4.896921
v -1.123919 0.489100 4.920553
v -1.118033 0.474042 4.948566
v -1.118275 0.474042 4.892490
v -1.114790 0.478485 4.920514
vt 0.781084 0.867069
vt 0.801922 0.671425
vt 0.928057 0.686086
vt 0.898635 0.836820
vt 0.921672 0.705711
vt 0.805692 0.696164
vt 0.795745 0.904312
vt 0.898612 0.866847
vt 0.730734 0.962255
vt 0.881868 0.932728
vt 0.760140 1.007233
vt 0.906180 0.968410
vt 0.983096 0.697849
vt 1.001899 0.800891
vt 0.994407 0.714626
vt 1.016151 0.822852
vt 0.958112 0.906270
vt 0.979544 0.936573
vt 0.128654 0.405456
vt 0.190769 0.438341
vt 0.241521 0.585287
vt 0.157861 0.580590
vt 0.057748 0.606356
vt 0.068527 0.452355
vt 0.262210 0.663009
vt 0.167571 0.687283
vt 0.050485 0.687283
vt 0.176461 0.459008
vt 0.067877 0.444299
vt 0.064767 0.333000
vt 0.188210 0.320724
vt 0.759985 0.692963
vt 0.768025 0.574767
vt 0.863712 0.550314
vt 0.846964 0.696427
vt 0.061742 0.235475
vt 0.163660 0.210561
vt 0.302099 0.702378
vt 0.269635 0.599824
vt 0.356614 0.603288
vt 0.379191 0.720743
vt 0.229875 0.964435
vt 0.126665 0.980000
vt 0.062022 0.943271
vt 0.168608 0.847740
vt 0.454071 0.627144
vt 0.450435 0.555225
vt 0.513309 0.484450
vt 0.574576 0.609965
vt 0.443102 0.939052
vt 0.386798 0.972358
vt 0.374152 0.836461
vt 0.459627 0.832997
vt 0.321841 0.948674
vt 0.285777 0.846794
vt 0.361107 0.642182
vt 0.437322 0.640828
vt 0.280093 0.653305
vt 0.772555 0.676422
vt 0.942358 0.602195
vt 0.890365 0.555215
vt 0.763978 0.590351
vt 0.067198 0.779872
vt 0.139386 0.790874
vt 0.824109 0.575894
vt 0.762292 0.569318
vt 0.817092 0.558913
vt 0.772474 0.589595
vt 0.356294 0.564620
vt 0.390691 0.556353
vt 0.319531 0.562000
vt 0.353847 0.506013
vt 0.383293 0.499166
vt 0.677277 0.495004
vt 0.676509 0.432849
vt 0.715369 0.436767
vt 0.710685 0.498109
vt 0.742336 0.503903
vt 0.793804 0.497294
vt 0.748132 0.521405
vt 0.797634 0.511849
vt 0.055717 0.728616
vt 0.109534 0.730683
vt 0.838169 0.501312
vt 0.739677 0.521541
vt 0.826091 0.442248
vt 0.698995 0.456898
vt 0.709494 0.233179
vt 0.662300 0.255990
vt 0.619162 0.209959
vt 0.689397 0.182394
vt 0.772891 0.452274
vt 0.715474 0.442764
vt 0.782541 0.440052
vt 0.709408 0.458423
vt 0.352981 0.454434
vt 0.395998 0.446441
vt 0.676590 0.549666
vt 0.724887 0.552102
vt 0.345582 0.373169
vt 0.384848 0.371630
vt 0.307357 0.453475
vt 0.304951 0.377970
vt 0.774307 0.446640
vt 0.707240 0.449352
vt 0.733395 0.377923
vt 0.785693 0.399306
vt 0.733240 0.381411
vt 0.784073 0.401487
vt 0.614732 0.161196
vt 0.680950 0.153995
vt 0.827283 0.410918
vt 0.458442 0.792669
vt 0.582785 0.789106
vt 0.588157 0.818208
vt 0.494949 0.866345
vt 0.725329 0.374195
vt 0.813976 0.365247
vt 0.780022 0.340713
vt 0.623896 0.117500
vt 0.664255 0.115488
vt 0.313497 0.905676
vt 0.292254 0.866307
vt 0.331701 0.849339
vt 0.348187 0.890647
vt 0.783508 0.404784
vt 0.731210 0.383402
vt 0.777638 0.352479
vt 0.799396 0.366278
vt 0.783439 0.346075
vt 0.804364 0.359639
vt 0.339054 0.331688
vt 0.370042 0.330752
vt 0.307404 0.335723
vt 0.334430 0.259528
vt 0.303442 0.260464
vt 0.295009 0.173741
vt 0.322676 0.172142
vt 0.271792 0.264499
vt 0.266825 0.176574
vt 0.809815 0.354212
vt 0.788058 0.340412
vt 0.825328 0.258907
vt 0.838622 0.266129
vt 0.817885 0.257828
vt 0.830514 0.264839
vt 0.391000 0.889771
vt 0.402067 0.986689
vt 0.370474 0.988808
vt 0.337205 1.000000
vt 0.828130 0.265981
vt 0.816177 0.254161
vt 0.559970 0.775754
vt 0.563474 0.807451
vt 0.548131 0.802305
vt 0.543181 0.774790
vt 0.460462 0.248259
vt 0.446133 0.253559
vt 0.448500 0.221510
vt 0.464362 0.221954
vn -0.0405 0.4174 0.9078
vn -0.0483 0.4174 -0.9074
vn 0.3076 0.1823 0.9339
vn 0.2996 0.1823 -0.9365
vn -0.1137 -0.3027 0.9463
vn -0.1218 -0.3027 -0.9453
vn 0.2317 -0.1879 0.9545
vn 0.2235 -0.1878 -0.9564
vn 0.9187 -0.2523 0.3039
vn 0.9160 -0.2523 -0.3118
vn 0.8537 -0.4313 0.2917
vn 0.8512 -0.4313 -0.2990
vn 0.3173 -0.8720 0.3726
vn 0.3141 -0.8720 -0.3753
vn -0.3183 -0.8223 0.4718
vn -0.3223 -0.8223 -0.4690
vn -0.7504 -0.4530 0.4813
vn -0.7545 -0.4530 -0.4748
vn -0.2020 0.9209 0.3334
vn -0.2049 0.9209 -0.3316
vn 0.0651 0.9290 0.3643
vn 0.0620 0.9290 -0.3649
vn -0.0043 -0.0000 -1.0000
vn -0.7025 -0.3946 0.5924
vn -0.7075 -0.3946 -0.5863
vn -0.2301 0.3682 0.9008
vn -0.2379 0.3682 -0.8988
vn 0.2006 0.8951 0.3982
vn 0.1971 0.8951 -0.3999
vn 0.3747 0.8649 0.3339
vn 0.3718 0.8650 -0.3371
vn 0.0261 0.2497 0.9680
vn 0.0177 0.2497 -0.9682
vn -0.4683 -0.5362 0.7022
vn -0.4744 -0.5362 -0.6982
vn -0.1734 -0.7705 0.6133
vn -0.1787 -0.7705 -0.6118
vn 0.3671 0.1658 0.9153
vn 0.3592 0.1658 -0.9184
vn 0.5750 0.7608 0.3009
vn 0.5724 0.7608 -0.3058
vn -0.2097 0.9331 0.2920
vn -0.2122 0.9331 -0.2902
vn -0.1318 0.2871 0.9488
vn -0.1399 0.2871 -0.9476
vn -0.0009 -0.8229 0.5681
vn -0.0058 -0.8229 -0.5681
vn -0.0944 -0.9125 0.3981
vn -0.0978 -0.9125 -0.3973
vn -0.3972 0.1570 0.9042
vn -0.4049 0.1570 -0.9008
vn -0.7728 0.5946 0.2216
vn -0.7747 0.5946 -0.2150
vn -0.2861 0.9380 0.1958
vn -0.2878 0.9380 -0.1933
vn -0.1164 0.3031 0.9458
vn -0.1245 0.3031 -0.9448
vn 0.1146 -0.9929 0.0306
vn 0.1144 -0.9929 -0.0316
vn -0.8276 -0.5482 -0.1208
vn -0.8265 -0.5482 0.1279
usemtl Pato.001
s off
f 15/1/1 7/2/1 19/3/1 21/4/1
f 20/5/2 8/6/2 16/7/2 22/8/2
f 1/9/3 15/1/3 21/4/3 13/10/3
f 22/8/4 16/7/4 2/11/4 14/12/4
f 21/4/5 19/3/5 5/13/5 17/14/5
f 6/15/6 20/5/6 22/8/6 18/16/6
f 13/10/7 21/4/7 17/14/7 3/17/7
f 18/16/8 22/8/8 14/12/8 4/18/8
f 9/19/9 1/20/9 13/21/9 23/22/9
f 14/23/10 2/24/10 9/19/10 23/22/10
f 23/22/11 13/21/11 3/25/11 10/26/11
f 4/27/12 14/23/12 23/22/12 10/26/12
f 10/28/13 3/29/13 17/30/13 24/31/13
f 18/32/14 4/33/14 10/34/14 24/35/14
f 24/31/15 17/30/15 5/36/15 11/37/15
f 6/38/16 18/39/16 24/40/16 11/41/16
f 11/42/17 5/43/17 19/44/17 25/45/17
f 20/46/18 6/47/18 11/48/18 25/49/18
f 1/50/19 9/51/19 26/52/19 15/53/19
f 26/52/20 9/51/20 2/54/20 16/55/20
f 15/53/21 26/52/21 12/56/21 7/57/21
f 12/56/22 26/52/22 16/55/22 8/58/22
f 12/59/23 25/60/23 27/61/23 30/62/23
f 25/45/24 19/44/24 28/63/24 27/64/24
f 29/65/25 20/5/25 25/60/25 27/61/25
f 19/3/26 7/2/26 31/66/26 28/67/26
f 32/68/27 8/6/27 20/5/27 29/65/27
f 7/57/28 12/56/28 30/69/28 31/70/28
f 30/69/29 12/56/29 8/58/29 32/71/29
f 31/70/30 30/69/30 35/72/30 33/73/30
f 35/74/31 30/75/31 32/76/31 34/77/31
f 28/67/32 31/66/32 33/78/32 36/79/32
f 34/80/33 32/68/33 29/65/33 37/81/33
f 27/64/34 28/63/34 36/82/34 38/83/34
f 37/81/35 29/65/35 27/61/35 38/84/35
f 30/62/23 27/61/23 38/84/23 35/85/23
f 35/85/23 38/84/23 39/86/23 42/87/23
f 38/88/36 36/89/36 40/90/36 39/91/36
f 41/92/37 37/81/37 38/84/37 39/86/37
f 36/79/38 33/78/38 43/93/38 40/94/38
f 44/95/39 34/80/39 37/81/39 41/92/39
f 33/73/40 35/72/40 42/96/40 43/97/40
f 42/98/41 35/74/41 34/77/41 44/99/41
f 43/97/42 42/96/42 47/100/42 45/101/42
f 47/100/43 42/96/43 44/102/43 46/103/43
f 40/104/44 43/105/44 45/106/44 48/107/44
f 46/108/45 44/95/45 41/92/45 49/109/45
f 39/91/46 40/90/46 48/110/46 50/111/46
f 49/109/47 41/92/47 39/86/47 50/112/47
f 42/113/23 39/114/23 50/115/23 47/116/23
f 47/117/23 50/112/23 51/118/23 54/119/23
f 50/111/48 48/110/48 52/120/48 51/121/48
f 53/122/49 49/123/49 50/124/49 51/125/49
f 48/126/50 45/127/50 55/128/50 52/129/50
f 56/130/51 46/108/51 49/109/51 53/131/51
f 45/101/52 47/100/52 54/132/52 55/133/52
f 54/132/53 47/100/53 46/103/53 56/134/53
f 55/135/54 54/136/54 59/137/54 57/138/54
f 59/137/55 54/136/55 56/139/55 58/140/55
f 52/141/56 55/142/56 57/143/56 60/144/56
f 58/145/57 56/130/57 53/131/57 61/146/57
f 51/125/58 52/147/58 60/148/58 62/149/58
f 61/150/59 53/122/59 51/125/59 62/149/59
f 54/119/23 51/118/23 62/151/23 59/152/23
f 62/153/60 60/154/60 57/155/60 59/156/60
f 58/157/61 61/158/61 62/159/61 59/160/61
